<?xml version="1.0" encoding="UTF-8"?>
<!DOCTYPE svg PUBLIC "-//W3C//DTD SVG 1.1//EN" "http://www.w3.org/Graphics/SVG/1.1/DTD/svg11.dtd">
<svg version="1.2" width="130mm" height="70mm" viewBox="0 0 13000 7000" preserveAspectRatio="xMidYMid" fill-rule="evenodd" stroke-width="28.222" stroke-linejoin="round" xmlns="http://www.w3.org/2000/svg" xmlns:ooo="http://xml.openoffice.org/svg/export" xmlns:xlink="http://www.w3.org/1999/xlink" xmlns:presentation="http://sun.com/xmlns/staroffice/presentation" xmlns:smil="http://www.w3.org/2001/SMIL20/" xmlns:anim="urn:oasis:names:tc:opendocument:xmlns:animation:1.0" xmlns:svg="urn:oasis:names:tc:opendocument:xmlns:svg-compatible:1.0" xml:space="preserve">
 <defs class="ClipPathGroup">
  <clipPath id="presentation_clip_path" clipPathUnits="userSpaceOnUse">
   <rect x="0" y="0" width="13000" height="7000"/>
  </clipPath>
  <clipPath id="presentation_clip_path_shrink" clipPathUnits="userSpaceOnUse">
   <rect x="13" y="7" width="12974" height="6986"/>
  </clipPath>
 </defs>
 <defs class="TextShapeIndex">
  <g ooo:slide="id1" ooo:id-list="id3 id4 id5 id6 id7 id8 id9 id10 id11 id12 id13 id14 id15 id16 id17 id18 id19 id20 id21 id22 id23 id24 id25 id26 id27 id28 id29 id30 id31 id32 id33 id34 id35 id36 id37 id38 id39 id40 id41 id42 id43 id44 id45 id46 id47 id48 id49 id50 id51 id52 id53 id54 id55 id56 id57 id58 id59 id60 id61 id62 id63 id64 id65 id66 id67 id68 id69 id70 id71 id72 id73 id74 id75 id76 id77 id78 id79 id80 id81 id82 id83 id84 id85 id86 id87 id88 id89 id90 id91 id92 id93 id94 id95 id96 id97 id98 id99 id100 id101 id102 id103 id104"/>
 </defs>
 <defs class="EmbeddedBulletChars">
  <g id="bullet-char-template-57356" transform="scale(0.00048828125,-0.00048828125)">
   <path d="M 580,1141 L 1163,571 580,0 -4,571 580,1141 Z"/>
  </g>
  <g id="bullet-char-template-57354" transform="scale(0.00048828125,-0.00048828125)">
   <path d="M 8,1128 L 1137,1128 1137,0 8,0 8,1128 Z"/>
  </g>
  <g id="bullet-char-template-10146" transform="scale(0.00048828125,-0.00048828125)">
   <path d="M 174,0 L 602,739 174,1481 1456,739 174,0 Z M 1358,739 L 309,1346 659,739 1358,739 Z"/>
  </g>
  <g id="bullet-char-template-10132" transform="scale(0.00048828125,-0.00048828125)">
   <path d="M 2015,739 L 1276,0 717,0 1260,543 174,543 174,936 1260,936 717,1481 1274,1481 2015,739 Z"/>
  </g>
  <g id="bullet-char-template-10007" transform="scale(0.00048828125,-0.00048828125)">
   <path d="M 0,-2 C -7,14 -16,27 -25,37 L 356,567 C 262,823 215,952 215,954 215,979 228,992 255,992 264,992 276,990 289,987 310,991 331,999 354,1012 L 381,999 492,748 772,1049 836,1024 860,1049 C 881,1039 901,1025 922,1006 886,937 835,863 770,784 769,783 710,716 594,584 L 774,223 C 774,196 753,168 711,139 L 727,119 C 717,90 699,76 672,76 641,76 570,178 457,381 L 164,-76 C 142,-110 111,-127 72,-127 30,-127 9,-110 8,-76 1,-67 -2,-52 -2,-32 -2,-23 -1,-13 0,-2 Z"/>
  </g>
  <g id="bullet-char-template-10004" transform="scale(0.00048828125,-0.00048828125)">
   <path d="M 285,-33 C 182,-33 111,30 74,156 52,228 41,333 41,471 41,549 55,616 82,672 116,743 169,778 240,778 293,778 328,747 346,684 L 369,508 C 377,444 397,411 428,410 L 1163,1116 C 1174,1127 1196,1133 1229,1133 1271,1133 1292,1118 1292,1087 L 1292,965 C 1292,929 1282,901 1262,881 L 442,47 C 390,-6 338,-33 285,-33 Z"/>
  </g>
  <g id="bullet-char-template-9679" transform="scale(0.00048828125,-0.00048828125)">
   <path d="M 813,0 C 632,0 489,54 383,161 276,268 223,411 223,592 223,773 276,916 383,1023 489,1130 632,1184 813,1184 992,1184 1136,1130 1245,1023 1353,916 1407,772 1407,592 1407,412 1353,268 1245,161 1136,54 992,0 813,0 Z"/>
  </g>
  <g id="bullet-char-template-8226" transform="scale(0.00048828125,-0.00048828125)">
   <path d="M 346,457 C 273,457 209,483 155,535 101,586 74,649 74,723 74,796 101,859 155,911 209,963 273,989 346,989 419,989 480,963 531,910 582,859 608,796 608,723 608,648 583,586 532,535 482,483 420,457 346,457 Z"/>
  </g>
  <g id="bullet-char-template-8211" transform="scale(0.00048828125,-0.00048828125)">
   <path d="M -4,459 L 1135,459 1135,606 -4,606 -4,459 Z"/>
  </g>
  <g id="bullet-char-template-61548" transform="scale(0.00048828125,-0.00048828125)">
   <path d="M 173,740 C 173,903 231,1043 346,1159 462,1274 601,1332 765,1332 928,1332 1067,1274 1183,1159 1299,1043 1357,903 1357,740 1357,577 1299,437 1183,322 1067,206 928,148 765,148 601,148 462,206 346,322 231,437 173,577 173,740 Z"/>
  </g>
 </defs>
 <g>
  <g id="id2" class="Master_Slide">
   <g id="bg-id2" class="Background"/>
   <g id="bo-id2" class="BackgroundObjects"/>
  </g>
 </g>
 <g class="SlideGroup">
  <g>
   <g id="container-id1">
    <g id="id1" class="Slide" clip-path="url(#presentation_clip_path)">
     <g class="Page">
      <g class="Group">
       <g class="com.sun.star.drawing.ClosedBezierShape">
        <g id="id3">
         <rect class="BoundingBox" stroke="none" fill="none" x="6526" y="3519" width="250" height="76"/>
         <path fill="rgb(228,171,171)" stroke="none" d="M 6775,3520 C 6774,3544 6774,3569 6773,3594 L 6526,3585 C 6527,3563 6527,3542 6528,3520 L 6775,3520 Z "/>
        </g>
       </g>
       <g class="com.sun.star.drawing.ClosedBezierShape">
        <g id="id4">
         <rect class="BoundingBox" stroke="none" fill="none" x="526" y="3410" width="250" height="76"/>
         <path fill="rgb(184,210,184)" stroke="none" d="M 527,3485 C 527,3460 527,3436 528,3411 L 775,3420 C 774,3441 774,3463 774,3485 L 527,3485 Z "/>
        </g>
       </g>
       <g class="com.sun.star.drawing.ClosedBezierShape">
        <g id="id5">
         <rect class="BoundingBox" stroke="none" fill="none" x="803" y="2148" width="256" height="170"/>
         <path fill="rgb(228,171,171)" stroke="none" d="M 1057,2257 C 1048,2277 1038,2297 1029,2317 L 804,2216 C 814,2194 824,2171 835,2149 L 1057,2257 Z "/>
        </g>
       </g>
       <g class="com.sun.star.drawing.ClosedBezierShape">
        <g id="id6">
         <rect class="BoundingBox" stroke="none" fill="none" x="6244" y="4688" width="255" height="170"/>
         <path fill="rgb(184,210,184)" stroke="none" d="M 6244,4748 C 6253,4728 6263,4708 6272,4689 L 6497,4789 C 6487,4812 6477,4834 6466,4856 L 6244,4748 Z "/>
        </g>
       </g>
      </g>
      <g class="com.sun.star.drawing.ClosedBezierShape">
       <g id="id7">
        <rect class="BoundingBox" stroke="none" fill="none" x="5668" y="4444" width="37" height="38"/>
        <path fill="rgb(228,171,171)" stroke="none" d="M 5670,4455 C 5671,4452 5673,4450 5676,4448 5678,4446 5681,4445 5684,4445 5687,4445 5690,4445 5693,4447 5696,4448 5698,4450 5700,4453 5702,4455 5703,4458 5703,4461 5703,4464 5703,4467 5701,4470 5700,4473 5698,4475 5695,4477 5693,4479 5690,4480 5687,4480 5684,4481 5681,4480 5678,4479 5675,4477 5673,4475 5671,4473 5669,4470 5668,4467 5668,4464 5668,4461 5668,4458 5670,4455 Z "/>
       </g>
      </g>
      <g class="com.sun.star.drawing.ClosedBezierShape">
       <g id="id8">
        <rect class="BoundingBox" stroke="none" fill="none" x="5637" y="4508" width="37" height="36"/>
        <path fill="rgb(228,171,171)" stroke="none" d="M 5639,4518 C 5640,4515 5643,4512 5645,4511 5648,4509 5651,4508 5654,4508 5657,4508 5660,4509 5663,4510 5665,4511 5668,4513 5669,4516 5671,4519 5672,4522 5672,4525 5672,4528 5672,4531 5670,4533 5670,4534 5670,4534 5670,4534 5669,4537 5667,4539 5664,4541 5661,4542 5658,4543 5655,4543 5652,4543 5649,4543 5647,4541 5644,4540 5641,4538 5640,4535 5638,4533 5637,4530 5637,4527 5637,4524 5638,4521 5639,4518 Z "/>
       </g>
      </g>
      <g class="com.sun.star.drawing.ClosedBezierShape">
       <g id="id9">
        <rect class="BoundingBox" stroke="none" fill="none" x="5604" y="4569" width="36" height="36"/>
        <path fill="rgb(228,171,171)" stroke="none" d="M 5606,4578 C 5608,4575 5610,4573 5613,4572 5615,4570 5618,4569 5621,4569 5624,4569 5627,4570 5630,4571 5633,4573 5635,4575 5637,4577 5638,4580 5639,4583 5639,4586 5639,4589 5638,4592 5637,4595 5635,4598 5633,4600 5631,4602 5628,4603 5625,4604 5622,4604 5619,4604 5616,4604 5613,4602 5610,4601 5608,4598 5607,4596 5605,4593 5604,4590 5604,4587 5604,4584 5605,4581 5606,4578 Z "/>
       </g>
      </g>
      <g class="com.sun.star.drawing.ClosedBezierShape">
       <g id="id10">
        <rect class="BoundingBox" stroke="none" fill="none" x="5569" y="4630" width="36" height="37"/>
        <path fill="rgb(228,171,171)" stroke="none" d="M 5572,4639 C 5573,4636 5575,4634 5578,4632 5581,4631 5584,4630 5587,4630 5590,4630 5593,4631 5596,4632 5598,4634 5600,4636 5602,4639 5603,4642 5604,4645 5604,4648 5604,4651 5603,4654 5602,4656 5602,4657 5602,4657 5602,4657 5600,4659 5598,4662 5595,4663 5592,4665 5589,4665 5586,4665 5583,4665 5580,4664 5578,4663 5575,4661 5573,4659 5571,4656 5570,4654 5569,4651 5569,4648 5569,4645 5570,4642 5571,4639 5572,4639 5572,4639 5572,4639 Z "/>
       </g>
      </g>
      <g class="com.sun.star.drawing.ClosedBezierShape">
       <g id="id11">
        <rect class="BoundingBox" stroke="none" fill="none" x="1424" y="3051" width="36" height="37"/>
        <path fill="rgb(228,171,171)" stroke="none" d="M 1459,3072 C 1458,3075 1457,3078 1455,3080 1453,3083 1450,3084 1447,3085 1444,3086 1441,3087 1438,3086 1435,3085 1432,3084 1430,3082 1428,3080 1426,3077 1425,3075 1424,3072 1424,3069 1424,3065 1425,3062 1426,3059 1428,3057 1430,3055 1433,3053 1436,3052 1439,3051 1442,3051 1445,3051 1448,3052 1451,3053 1453,3055 1455,3057 1457,3060 1458,3063 1459,3066 1459,3069 1459,3072 Z "/>
       </g>
      </g>
      <g class="com.sun.star.drawing.ClosedBezierShape">
       <g id="id12">
        <rect class="BoundingBox" stroke="none" fill="none" x="1439" y="2982" width="36" height="37"/>
        <path fill="rgb(228,171,171)" stroke="none" d="M 1474,3004 C 1473,3007 1471,3009 1469,3012 1467,3014 1465,3016 1462,3017 1459,3017 1456,3018 1453,3017 1450,3016 1447,3015 1445,3013 1442,3011 1441,3008 1440,3005 1439,3002 1439,2999 1439,2996 L 1440,2996 C 1440,2993 1442,2990 1444,2988 1446,2985 1448,2984 1451,2983 1454,2982 1457,2982 1460,2982 1463,2983 1466,2985 1468,2987 1471,2989 1472,2991 1473,2994 1474,2997 1474,3000 1474,3003 1474,3004 1474,3004 1474,3004 Z "/>
       </g>
      </g>
      <g class="com.sun.star.drawing.ClosedBezierShape">
       <g id="id13">
        <rect class="BoundingBox" stroke="none" fill="none" x="1455" y="2914" width="36" height="37"/>
        <path fill="rgb(228,171,171)" stroke="none" d="M 1489,2936 C 1489,2939 1487,2942 1485,2944 1483,2946 1480,2948 1477,2949 1474,2950 1471,2950 1468,2949 1465,2948 1462,2946 1460,2944 1458,2942 1456,2939 1456,2936 1455,2934 1455,2930 1456,2927 1456,2924 1458,2921 1460,2919 1462,2917 1465,2915 1468,2915 1471,2914 1474,2914 1477,2915 1480,2915 1483,2917 1485,2919 1487,2921 1489,2924 1489,2927 1490,2930 1490,2933 1490,2936 1489,2936 1489,2936 1489,2936 Z "/>
       </g>
      </g>
      <g class="com.sun.star.drawing.ClosedBezierShape">
       <g id="id14">
        <rect class="BoundingBox" stroke="none" fill="none" x="1474" y="2847" width="36" height="37"/>
        <path fill="rgb(228,171,171)" stroke="none" d="M 1508,2870 C 1507,2873 1506,2875 1504,2878 1501,2880 1499,2881 1496,2882 1493,2883 1490,2882 1487,2882 1484,2881 1481,2879 1479,2877 1477,2875 1475,2872 1474,2869 1474,2866 1474,2863 1475,2860 1476,2857 1477,2854 1480,2852 1482,2850 1485,2848 1487,2847 1490,2847 1494,2847 1497,2848 1499,2849 1502,2850 1504,2852 1506,2855 1508,2857 1509,2860 1509,2863 1509,2866 1508,2869 1508,2870 1508,2870 1508,2870 Z "/>
       </g>
      </g>
      <g class="com.sun.star.drawing.ClosedBezierShape">
       <g id="id15">
        <rect class="BoundingBox" stroke="none" fill="none" x="1495" y="2780" width="36" height="37"/>
        <path fill="rgb(228,171,171)" stroke="none" d="M 1529,2803 C 1528,2806 1526,2809 1524,2811 1522,2813 1519,2814 1516,2815 1513,2816 1510,2815 1507,2814 1504,2813 1502,2812 1499,2810 1497,2807 1496,2804 1495,2801 1495,2798 1495,2795 1496,2792 1497,2789 1499,2787 1501,2784 1503,2782 1506,2781 1509,2780 1512,2780 1515,2780 1518,2781 1521,2782 1524,2784 1526,2786 1528,2788 1529,2791 1530,2794 1530,2797 1530,2800 1529,2803 Z "/>
       </g>
      </g>
      <g class="com.sun.star.drawing.ClosedBezierShape">
       <g id="id16">
        <rect class="BoundingBox" stroke="none" fill="none" x="1517" y="2714" width="37" height="37"/>
        <path fill="rgb(228,171,171)" stroke="none" d="M 1552,2738 C 1551,2741 1549,2743 1547,2745 1544,2747 1542,2749 1539,2749 1536,2750 1532,2749 1530,2748 1527,2747 1524,2745 1522,2743 1520,2741 1519,2738 1518,2735 1518,2732 1518,2729 1519,2726 1520,2723 1522,2720 1524,2718 1527,2716 1530,2715 1533,2714 1536,2714 1539,2714 1542,2715 1544,2716 1547,2718 1549,2720 1551,2723 1552,2725 1553,2728 1553,2731 1553,2735 1552,2737 1552,2738 1552,2738 1552,2738 Z "/>
       </g>
      </g>
      <g class="com.sun.star.drawing.ClosedBezierShape">
       <g id="id17">
        <rect class="BoundingBox" stroke="none" fill="none" x="1542" y="2649" width="37" height="37"/>
        <path fill="rgb(228,171,171)" stroke="none" d="M 1577,2673 C 1576,2676 1574,2679 1571,2681 1569,2682 1566,2684 1563,2684 1560,2685 1557,2684 1554,2683 1551,2682 1549,2680 1547,2678 1545,2675 1544,2672 1543,2669 1543,2666 1543,2663 1544,2660 1546,2657 1547,2655 1550,2653 1552,2651 1555,2650 1558,2649 1561,2649 1564,2649 1567,2650 1570,2651 1572,2653 1574,2656 1576,2658 1578,2661 1578,2664 1578,2667 1578,2670 1577,2673 Z "/>
       </g>
      </g>
      <g class="com.sun.star.drawing.ClosedBezierShape">
       <g id="id18">
        <rect class="BoundingBox" stroke="none" fill="none" x="1569" y="2584" width="37" height="37"/>
        <path fill="rgb(228,171,171)" stroke="none" d="M 1604,2609 C 1602,2612 1600,2614 1598,2616 1595,2618 1593,2619 1589,2619 1586,2620 1583,2619 1581,2618 1578,2617 1575,2615 1573,2612 1572,2610 1570,2607 1570,2604 1570,2601 1570,2598 1571,2595 1572,2595 1572,2595 1572,2595 1573,2592 1575,2589 1577,2587 1580,2586 1583,2584 1586,2584 1589,2584 1592,2584 1595,2585 1597,2587 1600,2589 1602,2591 1604,2594 1605,2596 1605,2600 1605,2603 1605,2606 1604,2608 1604,2609 1604,2609 1604,2609 Z "/>
       </g>
      </g>
      <g class="com.sun.star.drawing.ClosedBezierShape">
       <g id="id19">
        <rect class="BoundingBox" stroke="none" fill="none" x="1598" y="2520" width="37" height="37"/>
        <path fill="rgb(228,171,171)" stroke="none" d="M 1632,2545 C 1631,2548 1629,2550 1626,2552 1624,2554 1621,2555 1618,2555 1615,2556 1612,2555 1609,2554 1606,2552 1604,2550 1602,2548 1600,2545 1599,2542 1599,2539 1599,2536 1599,2533 1601,2530 1602,2527 1604,2525 1607,2523 1609,2521 1612,2520 1615,2520 1618,2520 1621,2520 1624,2522 1627,2523 1629,2525 1631,2528 1633,2530 1634,2533 1634,2536 1634,2539 1634,2542 1632,2545 Z "/>
       </g>
      </g>
      <g class="com.sun.star.drawing.ClosedBezierShape">
       <g id="id20">
        <rect class="BoundingBox" stroke="none" fill="none" x="5456" y="3027" width="515" height="1788"/>
        <path fill="rgb(255,255,255)" stroke="none" d="M 5497,4743 C 5525,4701 5552,4657 5578,4613 5676,4444 5750,4264 5800,4077 5850,3890 5876,3696 5876,3501 5876,3359 5862,3217 5835,3078 L 5887,3068 C 5915,3210 5929,3355 5929,3501 5929,3701 5903,3899 5851,4090 5800,4282 5724,4467 5624,4640 5598,4685 5570,4729 5541,4773 L 5497,4743 Z "/>
        <path fill="none" stroke="rgb(255,255,255)" stroke-width="81" stroke-linejoin="round" d="M 5497,4743 C 5525,4701 5552,4657 5578,4613 5676,4444 5750,4264 5800,4077 5850,3890 5876,3696 5876,3501 5876,3359 5862,3217 5835,3078 L 5887,3068 C 5915,3210 5929,3355 5929,3501 5929,3701 5903,3899 5851,4090 5800,4282 5724,4467 5624,4640 5598,4685 5570,4729 5541,4773 L 5497,4743 Z "/>
       </g>
      </g>
      <g class="com.sun.star.drawing.ClosedBezierShape">
       <g id="id21">
        <rect class="BoundingBox" stroke="none" fill="none" x="4468" y="1351" width="1347" height="1367"/>
        <path fill="rgb(255,255,255)" stroke="none" d="M 5712,2664 C 5673,2569 5628,2477 5577,2387 5479,2218 5360,2064 5223,1927 5087,1790 4932,1671 4763,1573 4684,1528 4604,1488 4521,1453 L 4542,1404 C 4626,1440 4709,1481 4789,1528 4962,1627 5121,1749 5261,1889 5401,2029 5523,2188 5623,2361 5675,2452 5722,2547 5761,2644 L 5712,2664 Z "/>
        <path fill="none" stroke="rgb(255,255,255)" stroke-width="106" stroke-linejoin="round" d="M 5712,2664 C 5673,2569 5628,2477 5577,2387 5479,2218 5360,2064 5223,1927 5087,1790 4932,1671 4763,1573 4684,1528 4604,1488 4521,1453 L 4542,1404 C 4626,1440 4709,1481 4789,1528 4962,1627 5121,1749 5261,1889 5401,2029 5523,2188 5623,2361 5675,2452 5722,2547 5761,2644 L 5712,2664 Z "/>
       </g>
      </g>
      <g class="com.sun.star.drawing.ClosedBezierShape">
       <g id="id22">
        <rect class="BoundingBox" stroke="none" fill="none" x="1334" y="2254" width="473" height="1484"/>
        <path fill="rgb(0,169,51)" stroke="none" d="M 1383,3696 C 1382,3680 1381,3663 1380,3647 1379,3631 1378,3615 1377,3598 1377,3582 1376,3566 1376,3549 1375,3533 1375,3516 1375,3500 1375,3475 1376,3450 1376,3425 1377,3400 1379,3375 1380,3351 1382,3326 1384,3301 1386,3276 1389,3252 1392,3227 1395,3202 1398,3178 1402,3153 1406,3129 1410,3104 1414,3080 1419,3055 1424,3031 1429,3007 1435,2983 1441,2959 1447,2935 1453,2911 1459,2887 1466,2863 1473,2839 1481,2816 1488,2792 1496,2769 1504,2745 1512,2722 1521,2698 1530,2675 1539,2652 1548,2629 1558,2606 1568,2584 1578,2561 1588,2538 1599,2516 1610,2493 1621,2471 1632,2449 1644,2427 1656,2405 1668,2383 1680,2362 1693,2339 1707,2317 1720,2295 1735,2304 1750,2314 1765,2323 1752,2345 1739,2366 1726,2388 1714,2409 1702,2431 1690,2452 1679,2474 1668,2495 1657,2517 1647,2539 1636,2561 1626,2583 1616,2605 1607,2627 1597,2650 1588,2672 1579,2695 1570,2717 1562,2740 1554,2763 1546,2786 1539,2809 1531,2832 1524,2855 1517,2878 1510,2901 1504,2924 1498,2948 1492,2971 1486,2995 1481,3018 1476,3042 1471,3066 1466,3090 1462,3113 1458,3137 1454,3161 1451,3185 1447,3209 1444,3233 1442,3257 1439,3281 1437,3306 1435,3330 1433,3354 1432,3378 1430,3403 1429,3427 1429,3451 1428,3476 1428,3500 1428,3516 1428,3532 1429,3548 1429,3564 1430,3580 1430,3596 1431,3612 1432,3628 1433,3644 1434,3660 1435,3675 1436,3691 1419,3693 1401,3694 1383,3696 Z "/>
        <path fill="none" stroke="rgb(255,255,255)" stroke-width="81" stroke-linejoin="round" d="M 1383,3696 C 1382,3680 1381,3663 1380,3647 1379,3631 1378,3615 1377,3598 1377,3582 1376,3566 1376,3549 1375,3533 1375,3516 1375,3500 1375,3475 1376,3450 1376,3425 1377,3400 1379,3375 1380,3351 L 1386,3276 C 1389,3252 1392,3227 1395,3202 1398,3178 1402,3153 1406,3129 1410,3104 1414,3080 1419,3055 1424,3031 1429,3007 1435,2983 L 1453,2911 C 1459,2887 1466,2863 1473,2839 1481,2816 1488,2792 1496,2769 1504,2745 1512,2722 1521,2698 L 1548,2629 C 1558,2606 1568,2584 1578,2561 1588,2538 1599,2516 1610,2493 1621,2471 1632,2449 1644,2427 1656,2405 1668,2383 1680,2362 1693,2339 1707,2317 1720,2295 1735,2304 1750,2314 1765,2323 1752,2345 1739,2366 1726,2388 1714,2409 1702,2431 1690,2452 1679,2474 1668,2495 1657,2517 1647,2539 1636,2561 1626,2583 1616,2605 1607,2627 1597,2650 1588,2672 1579,2695 1570,2717 L 1546,2786 C 1539,2809 1531,2832 1524,2855 1517,2878 1510,2901 1504,2924 1498,2948 1492,2971 1486,2995 1481,3018 1476,3042 1471,3066 1466,3090 1462,3113 1458,3137 1454,3161 1451,3185 1447,3209 1444,3233 1442,3257 1439,3281 1437,3306 1435,3330 1433,3354 1432,3378 1430,3403 1429,3427 1429,3451 1428,3476 1428,3500 1428,3516 1428,3532 1429,3548 1429,3564 1430,3580 1430,3596 L 1433,3644 C 1434,3660 1435,3675 1436,3691 1419,3693 1401,3694 1383,3696 Z "/>
       </g>
      </g>
      <g class="com.sun.star.drawing.PolyLineShape">
       <g id="id23">
        <rect class="BoundingBox" stroke="none" fill="none" x="2559" y="-145" width="920" height="1480"/>
        <path fill="none" stroke="rgb(255,255,255)" stroke-width="88" stroke-linejoin="round" d="M 2604,-100 L 3433,503 3433,503 2774,1289 "/>
       </g>
      </g>
      <g class="com.sun.star.drawing.PolyLineShape">
       <g id="id24">
        <rect class="BoundingBox" stroke="none" fill="none" x="3872" y="5658" width="920" height="1480"/>
        <path fill="none" stroke="rgb(255,255,255)" stroke-width="88" stroke-linejoin="round" d="M 4575,5703 L 3916,6489 3916,6489 4746,7092 "/>
       </g>
      </g>
      <g class="Group">
       <g class="com.sun.star.drawing.ClosedBezierShape">
        <g id="id25">
         <rect class="BoundingBox" stroke="none" fill="none" x="1773" y="2217" width="36" height="36"/>
         <path fill="rgb(178,178,178)" stroke="none" d="M 1805,2245 C 1803,2247 1801,2249 1798,2251 1795,2252 1792,2252 1789,2252 1786,2252 1783,2251 1781,2249 1778,2248 1776,2245 1775,2242 1773,2240 1773,2237 1773,2233 1773,2230 1774,2227 1776,2225 1778,2222 1780,2220 1783,2219 1786,2217 1789,2217 1792,2217 1795,2217 1798,2218 1801,2220 1803,2222 1805,2224 1806,2227 1808,2230 1808,2233 1808,2236 1808,2239 1807,2242 1805,2244 L 1805,2245 Z "/>
        </g>
       </g>
       <g class="com.sun.star.drawing.ClosedBezierShape">
        <g id="id26">
         <rect class="BoundingBox" stroke="none" fill="none" x="1814" y="2160" width="36" height="37"/>
         <path fill="rgb(178,178,178)" stroke="none" d="M 1846,2188 C 1844,2191 1841,2193 1839,2194 1836,2195 1833,2196 1830,2195 1827,2195 1824,2194 1821,2192 1819,2190 1817,2188 1816,2185 1814,2182 1814,2179 1814,2176 1814,2173 1816,2170 1817,2167 L 1818,2167 C 1819,2165 1822,2163 1825,2162 1827,2160 1830,2160 1834,2160 1837,2160 1840,2162 1842,2163 1844,2165 1846,2168 1848,2170 1849,2173 1849,2176 1849,2179 1849,2182 1848,2185 1846,2188 Z "/>
        </g>
       </g>
       <g class="com.sun.star.drawing.ClosedBezierShape">
        <g id="id27">
         <rect class="BoundingBox" stroke="none" fill="none" x="1855" y="2103" width="37" height="38"/>
         <path fill="rgb(178,178,178)" stroke="none" d="M 1887,2133 C 1885,2135 1883,2137 1880,2138 1877,2139 1874,2140 1871,2139 1868,2139 1865,2137 1863,2136 1860,2134 1858,2131 1857,2128 1856,2126 1856,2122 1856,2119 1857,2116 1858,2113 1860,2111 1862,2108 1864,2106 1867,2105 1870,2104 1873,2104 1876,2104 1879,2105 1882,2106 1884,2108 1887,2110 1889,2112 1890,2115 1891,2118 1891,2121 1891,2124 1891,2127 1889,2130 1888,2132 1887,2132 1887,2132 1887,2133 Z "/>
        </g>
       </g>
       <g class="com.sun.star.drawing.ClosedBezierShape">
        <g id="id28">
         <rect class="BoundingBox" stroke="none" fill="none" x="1899" y="2049" width="36" height="37"/>
         <path fill="rgb(178,178,178)" stroke="none" d="M 1930,2078 C 1928,2080 1925,2082 1923,2083 1920,2084 1917,2085 1914,2084 1911,2084 1908,2082 1905,2080 1903,2078 1901,2076 1900,2073 1899,2070 1899,2067 1899,2064 1900,2061 1901,2058 1903,2056 L 1903,2055 C 1905,2053 1908,2051 1911,2050 1913,2049 1917,2049 1920,2049 1923,2050 1926,2051 1928,2053 1930,2055 1932,2058 1933,2060 1934,2063 1934,2066 1934,2069 1933,2072 1932,2075 1930,2078 Z "/>
        </g>
       </g>
       <g class="com.sun.star.drawing.ClosedBezierShape">
        <g id="id29">
         <rect class="BoundingBox" stroke="none" fill="none" x="1945" y="1996" width="36" height="37"/>
         <path fill="rgb(178,178,178)" stroke="none" d="M 1976,2025 C 1974,2028 1971,2029 1968,2030 1965,2031 1962,2032 1959,2031 1956,2030 1953,2029 1951,2027 1949,2025 1947,2022 1946,2019 1945,2016 1945,2013 1945,2010 1946,2007 1947,2005 1949,2002 L 1950,2002 C 1952,2000 1954,1998 1957,1997 1960,1996 1963,1996 1966,1996 1969,1997 1972,1998 1974,2000 1977,2002 1978,2005 1979,2008 1980,2011 1980,2014 1980,2017 1979,2020 1978,2023 1976,2025 Z "/>
        </g>
       </g>
       <g class="com.sun.star.drawing.ClosedBezierShape">
        <g id="id30">
         <rect class="BoundingBox" stroke="none" fill="none" x="1992" y="1944" width="36" height="36"/>
         <path fill="rgb(178,178,178)" stroke="none" d="M 2022,1974 C 2020,1976 2018,1978 2015,1979 2012,1979 2009,1979 2006,1979 2003,1978 2000,1977 1998,1975 1995,1972 1994,1970 1993,1967 1992,1964 1992,1961 1992,1958 1993,1955 1995,1952 1997,1950 1999,1947 2002,1946 2005,1945 2008,1944 2011,1944 2014,1944 2017,1945 2019,1947 2022,1949 2024,1951 2026,1953 2026,1956 2027,1959 2027,1962 2027,1965 2026,1968 2025,1971 2023,1973 2022,1974 2022,1974 2022,1974 Z "/>
        </g>
       </g>
       <g class="com.sun.star.drawing.ClosedBezierShape">
        <g id="id31">
         <rect class="BoundingBox" stroke="none" fill="none" x="2041" y="1894" width="36" height="36"/>
         <path fill="rgb(178,178,178)" stroke="none" d="M 2071,1924 C 2069,1926 2066,1928 2063,1929 2060,1929 2057,1929 2054,1929 2051,1928 2048,1926 2046,1924 2044,1922 2042,1919 2042,1916 2041,1913 2041,1910 2042,1907 2042,1904 2044,1902 2046,1899 2049,1897 2051,1895 2054,1895 2057,1894 2060,1894 2063,1895 2066,1895 2069,1897 2071,1899 2073,1901 2075,1904 2076,1907 2076,1910 2076,1913 2076,1916 2075,1919 2073,1922 2071,1924 Z "/>
        </g>
       </g>
       <g class="com.sun.star.drawing.ClosedBezierShape">
        <g id="id32">
         <rect class="BoundingBox" stroke="none" fill="none" x="2091" y="1845" width="36" height="37"/>
         <path fill="rgb(178,178,178)" stroke="none" d="M 2121,1875 C 2118,1878 2116,1879 2113,1880 2110,1880 2106,1880 2103,1880 2101,1879 2098,1877 2096,1875 2094,1873 2092,1870 2091,1867 2091,1864 2091,1861 2092,1858 2093,1855 2094,1852 2096,1850 2097,1850 2097,1850 2097,1850 2099,1848 2102,1846 2105,1845 2108,1845 2111,1845 2114,1846 2117,1847 2119,1848 2121,1851 2124,1853 2125,1855 2126,1858 2126,1861 2126,1865 2126,1868 2125,1870 2123,1873 2121,1875 Z "/>
        </g>
       </g>
       <g class="com.sun.star.drawing.ClosedBezierShape">
        <g id="id33">
         <rect class="BoundingBox" stroke="none" fill="none" x="2142" y="1797" width="37" height="37"/>
         <path fill="rgb(178,178,178)" stroke="none" d="M 2171,1829 C 2169,1831 2166,1832 2163,1833 2160,1833 2157,1833 2154,1832 2151,1831 2148,1830 2146,1827 2144,1825 2143,1822 2142,1819 2142,1816 2142,1813 2143,1810 2144,1807 2146,1805 2148,1803 L 2148,1802 C 2150,1800 2153,1799 2156,1798 2159,1798 2162,1798 2165,1799 2168,1800 2171,1802 2173,1804 2175,1806 2176,1809 2177,1812 2178,1815 2177,1818 2176,1821 2175,1824 2174,1827 2171,1829 Z "/>
        </g>
       </g>
       <g class="com.sun.star.drawing.ClosedBezierShape">
        <g id="id34">
         <rect class="BoundingBox" stroke="none" fill="none" x="2196" y="1752" width="37" height="36"/>
         <path fill="rgb(178,178,178)" stroke="none" d="M 2225,1783 C 2222,1785 2219,1786 2216,1787 2213,1787 2210,1787 2207,1786 2205,1785 2202,1783 2200,1781 2198,1779 2197,1776 2196,1773 2196,1770 2196,1767 2197,1764 2198,1761 2200,1758 2202,1756 L 2203,1756 C 2205,1754 2208,1753 2211,1752 2214,1752 2217,1752 2220,1753 2223,1754 2225,1756 2227,1758 2229,1761 2230,1764 2231,1767 2232,1770 2231,1773 2230,1776 2229,1778 2227,1781 2225,1783 Z "/>
        </g>
       </g>
       <g class="com.sun.star.drawing.ClosedBezierShape">
        <g id="id35">
         <rect class="BoundingBox" stroke="none" fill="none" x="2250" y="1708" width="37" height="36"/>
         <path fill="rgb(178,178,178)" stroke="none" d="M 2278,1740 C 2276,1741 2273,1743 2270,1743 2267,1743 2264,1743 2261,1742 2258,1741 2256,1739 2254,1736 2252,1734 2251,1731 2250,1728 2250,1725 2250,1722 2251,1719 2252,1716 2254,1714 2257,1712 2259,1710 2262,1709 2265,1708 2268,1708 2272,1708 2274,1709 2277,1710 2280,1712 2282,1715 2283,1717 2285,1720 2285,1723 2286,1726 2285,1729 2284,1732 2283,1735 2281,1737 2279,1739 2278,1739 2278,1739 2278,1740 Z "/>
        </g>
       </g>
       <g class="com.sun.star.drawing.ClosedBezierShape">
        <g id="id36">
         <rect class="BoundingBox" stroke="none" fill="none" x="2306" y="1666" width="37" height="36"/>
         <path fill="rgb(178,178,178)" stroke="none" d="M 2334,1698 C 2331,1700 2328,1701 2325,1701 2322,1701 2319,1701 2316,1700 2314,1698 2311,1697 2309,1694 2308,1692 2306,1689 2306,1686 2306,1683 2306,1679 2307,1677 2309,1674 2311,1671 2313,1670 L 2313,1669 C 2316,1668 2319,1666 2322,1666 2325,1666 2328,1666 2331,1667 2334,1669 2336,1671 2338,1673 2340,1676 2341,1679 2341,1682 2342,1685 2341,1688 2340,1691 2339,1693 2337,1696 2334,1698 Z "/>
        </g>
       </g>
       <g class="com.sun.star.drawing.ClosedBezierShape">
        <g id="id37">
         <rect class="BoundingBox" stroke="none" fill="none" x="2363" y="1625" width="36" height="36"/>
         <path fill="rgb(178,178,178)" stroke="none" d="M 2390,1657 C 2388,1659 2385,1660 2382,1660 2379,1660 2376,1660 2373,1658 2370,1657 2368,1655 2366,1653 2364,1650 2363,1647 2363,1644 2363,1641 2363,1638 2365,1635 2366,1632 2368,1630 2371,1628 2373,1626 2376,1625 2379,1625 2383,1625 2386,1625 2388,1627 2391,1628 2393,1630 2395,1633 2397,1635 2398,1638 2398,1641 2398,1644 2398,1647 2397,1650 2395,1653 2393,1655 2391,1657 L 2390,1657 Z "/>
        </g>
       </g>
       <g class="com.sun.star.drawing.ClosedBezierShape">
        <g id="id38">
         <rect class="BoundingBox" stroke="none" fill="none" x="2422" y="1587" width="36" height="37"/>
         <path fill="rgb(178,178,178)" stroke="none" d="M 2449,1619 C 2446,1621 2443,1622 2440,1622 2437,1622 2434,1622 2431,1620 2429,1619 2426,1617 2425,1614 2423,1612 2422,1609 2422,1605 2422,1602 2423,1599 2424,1597 2425,1594 2427,1592 2430,1590 2433,1588 2436,1587 2439,1587 2442,1587 2445,1588 2448,1589 2451,1590 2453,1592 2455,1595 2456,1598 2457,1601 2457,1604 2457,1607 2457,1610 2455,1613 2454,1615 2452,1618 2449,1619 Z "/>
        </g>
       </g>
       <g class="com.sun.star.drawing.ClosedBezierShape">
        <g id="id39">
         <rect class="BoundingBox" stroke="none" fill="none" x="2481" y="1550" width="36" height="37"/>
         <path fill="rgb(178,178,178)" stroke="none" d="M 2507,1583 C 2505,1584 2502,1585 2499,1585 2496,1585 2493,1584 2490,1583 2487,1581 2485,1579 2483,1577 2482,1574 2481,1571 2481,1568 2481,1565 2482,1562 2483,1559 2485,1556 2487,1554 2490,1553 L 2490,1552 C 2492,1551 2495,1550 2499,1550 2502,1550 2505,1551 2507,1552 2510,1554 2512,1556 2514,1559 2515,1561 2516,1564 2516,1567 2516,1570 2516,1573 2514,1576 2513,1579 2510,1581 2508,1583 L 2507,1583 Z "/>
        </g>
       </g>
       <g class="com.sun.star.drawing.ClosedBezierShape">
        <g id="id40">
         <rect class="BoundingBox" stroke="none" fill="none" x="2603" y="1482" width="36" height="37"/>
         <path fill="rgb(178,178,178)" stroke="none" d="M 2629,1515 C 2626,1517 2623,1517 2620,1517 2617,1517 2614,1516 2611,1514 2608,1513 2606,1510 2605,1508 2604,1505 2603,1502 2603,1499 2603,1496 2604,1493 2606,1490 2607,1488 2610,1486 2612,1484 2613,1484 2613,1484 2613,1484 2616,1483 2619,1482 2622,1482 2625,1482 2628,1483 2630,1485 2633,1486 2635,1489 2636,1491 2638,1494 2638,1497 2638,1500 2638,1503 2637,1506 2636,1509 2634,1512 2632,1514 2629,1515 Z "/>
        </g>
       </g>
       <g class="com.sun.star.drawing.ClosedBezierShape">
        <g id="id41">
         <rect class="BoundingBox" stroke="none" fill="none" x="2730" y="1422" width="37" height="36"/>
         <path fill="rgb(178,178,178)" stroke="none" d="M 2755,1456 C 2752,1457 2749,1457 2746,1457 2743,1457 2740,1456 2737,1454 2735,1452 2733,1449 2731,1447 2730,1444 2730,1441 2730,1438 2730,1435 2732,1432 2733,1429 2735,1427 2738,1425 2740,1424 2741,1424 2741,1424 2741,1423 2744,1422 2747,1422 2750,1422 2753,1422 2756,1424 2758,1425 2761,1427 2763,1430 2764,1432 2765,1435 2766,1438 2765,1441 2765,1444 2764,1447 2762,1450 2760,1452 2758,1454 2755,1456 Z "/>
        </g>
       </g>
       <g class="com.sun.star.drawing.ClosedBezierShape">
        <g id="id42">
         <rect class="BoundingBox" stroke="none" fill="none" x="2860" y="1370" width="37" height="36"/>
         <path fill="rgb(178,178,178)" stroke="none" d="M 2884,1404 C 2881,1405 2878,1405 2874,1405 2871,1404 2869,1403 2866,1401 2864,1399 2862,1397 2861,1394 2860,1391 2860,1388 2860,1385 2861,1382 2862,1379 2864,1376 2866,1374 2869,1372 2871,1371 2872,1371 2872,1371 2872,1371 2875,1370 2878,1370 2881,1370 2884,1371 2887,1372 2889,1374 2891,1376 2893,1379 2894,1381 2895,1384 2896,1387 2895,1391 2895,1394 2893,1396 2891,1399 2889,1401 2887,1403 2884,1404 Z "/>
        </g>
       </g>
       <g class="com.sun.star.drawing.ClosedBezierShape">
        <g id="id43">
         <rect class="BoundingBox" stroke="none" fill="none" x="2993" y="1326" width="37" height="36"/>
         <path fill="rgb(178,178,178)" stroke="none" d="M 3015,1360 C 3013,1361 3009,1361 3006,1361 3003,1360 3001,1358 2998,1356 2996,1354 2995,1352 2994,1349 2993,1346 2993,1343 2993,1340 2994,1337 2996,1334 2998,1332 3000,1329 3003,1328 3006,1327 3009,1326 3012,1326 3015,1326 3018,1327 3021,1329 3023,1331 3025,1333 3027,1336 3028,1339 3028,1341 3029,1345 3028,1348 3027,1351 3026,1353 3024,1356 3021,1358 3019,1359 3016,1360 L 3015,1360 Z "/>
        </g>
       </g>
       <g class="com.sun.star.drawing.ClosedBezierShape">
        <g id="id44">
         <rect class="BoundingBox" stroke="none" fill="none" x="3128" y="1289" width="37" height="37"/>
         <path fill="rgb(178,178,178)" stroke="none" d="M 3149,1325 C 3146,1325 3143,1325 3140,1324 3137,1323 3135,1322 3133,1320 3131,1317 3129,1315 3128,1312 3128,1309 3128,1305 3129,1302 3130,1300 3131,1297 3134,1295 3136,1293 3139,1291 3142,1291 L 3142,1290 C 3145,1290 3148,1290 3151,1291 3154,1292 3157,1293 3159,1296 3161,1298 3162,1301 3163,1304 3164,1307 3163,1310 3163,1313 3162,1316 3160,1318 3158,1320 3156,1322 3153,1324 3150,1325 L 3149,1325 Z "/>
        </g>
       </g>
       <g class="com.sun.star.drawing.ClosedBezierShape">
        <g id="id45">
         <rect class="BoundingBox" stroke="none" fill="none" x="3334" y="1252" width="37" height="36"/>
         <path fill="rgb(178,178,178)" stroke="none" d="M 3354,1287 C 3351,1287 3348,1287 3345,1286 3342,1285 3340,1283 3338,1280 3336,1278 3335,1275 3334,1272 3334,1269 3334,1266 3335,1263 3336,1260 3338,1258 3341,1256 3343,1254 3346,1253 3349,1252 L 3350,1252 C 3353,1252 3356,1252 3359,1253 3361,1254 3364,1256 3366,1259 3368,1261 3369,1264 3369,1267 3370,1270 3369,1273 3368,1276 3367,1279 3365,1281 3363,1283 3360,1285 3357,1286 3354,1287 Z "/>
        </g>
       </g>
       <g class="com.sun.star.drawing.ClosedBezierShape">
        <g id="id46">
         <rect class="BoundingBox" stroke="none" fill="none" x="2542" y="1515" width="36" height="37"/>
         <path fill="rgb(178,178,178)" stroke="none" d="M 2568,1548 C 2565,1549 2562,1550 2559,1550 2556,1550 2553,1549 2550,1548 2548,1546 2546,1544 2544,1541 2543,1538 2542,1535 2542,1532 2542,1529 2543,1526 2544,1524 2546,1521 2548,1519 2551,1517 2554,1516 2557,1515 2560,1515 2563,1515 2566,1516 2569,1517 2571,1519 2574,1521 2575,1524 2577,1527 2577,1530 2577,1533 2577,1536 2576,1539 2575,1542 2573,1544 2571,1546 2568,1548 Z "/>
        </g>
       </g>
       <g class="com.sun.star.drawing.ClosedBezierShape">
        <g id="id47">
         <rect class="BoundingBox" stroke="none" fill="none" x="2666" y="1451" width="37" height="36"/>
         <path fill="rgb(178,178,178)" stroke="none" d="M 2691,1484 C 2688,1486 2685,1486 2682,1486 2679,1486 2676,1485 2674,1483 2671,1481 2669,1479 2668,1476 2666,1473 2666,1470 2666,1467 2666,1464 2667,1461 2669,1459 2671,1456 2673,1454 2676,1453 2679,1451 2682,1451 2685,1451 2688,1451 2691,1452 2694,1454 2696,1456 2698,1458 2700,1461 2701,1464 2702,1467 2701,1470 2701,1473 2700,1476 2698,1478 2696,1481 2694,1483 2691,1484 Z "/>
        </g>
       </g>
       <g class="com.sun.star.drawing.ClosedBezierShape">
        <g id="id48">
         <rect class="BoundingBox" stroke="none" fill="none" x="2794" y="1395" width="37" height="36"/>
         <path fill="rgb(178,178,178)" stroke="none" d="M 2818,1429 C 2815,1430 2812,1430 2809,1430 2806,1430 2803,1428 2801,1426 2798,1425 2796,1422 2795,1419 2794,1416 2794,1413 2794,1410 2795,1407 2796,1404 2798,1402 2800,1399 2802,1398 2805,1396 2808,1395 2811,1395 2814,1395 2817,1396 2820,1397 2823,1399 2825,1401 2827,1403 2828,1406 2829,1409 2830,1412 2829,1415 2829,1418 2827,1421 2826,1423 2824,1426 2821,1428 2818,1429 Z "/>
        </g>
       </g>
       <g class="com.sun.star.drawing.ClosedBezierShape">
        <g id="id49">
         <rect class="BoundingBox" stroke="none" fill="none" x="2926" y="1347" width="37" height="36"/>
         <path fill="rgb(178,178,178)" stroke="none" d="M 2949,1381 C 2946,1382 2943,1382 2940,1382 2937,1381 2934,1380 2932,1378 2930,1376 2928,1373 2927,1370 2926,1367 2926,1364 2926,1361 2927,1358 2928,1355 2930,1353 2932,1351 2935,1349 2938,1348 2941,1347 2944,1347 2947,1347 2950,1348 2953,1349 2955,1351 2958,1353 2959,1356 2960,1359 2961,1362 2962,1365 2961,1368 2960,1371 2959,1374 2957,1376 2955,1378 2952,1380 2949,1381 Z "/>
        </g>
       </g>
       <g class="com.sun.star.drawing.ClosedBezierShape">
        <g id="id50">
         <rect class="BoundingBox" stroke="none" fill="none" x="3060" y="1307" width="37" height="36"/>
         <path fill="rgb(178,178,178)" stroke="none" d="M 3082,1342 C 3079,1342 3076,1342 3073,1341 3070,1341 3067,1339 3065,1337 3063,1335 3061,1332 3061,1329 3060,1326 3060,1323 3061,1320 3061,1317 3063,1314 3065,1312 3067,1310 3070,1308 3073,1308 3076,1307 3079,1307 3082,1308 3085,1308 3088,1310 3090,1312 3092,1314 3094,1317 3095,1320 3096,1323 3096,1326 3095,1329 3094,1332 3092,1335 3090,1337 3088,1339 3085,1341 3082,1341 L 3082,1342 Z "/>
        </g>
       </g>
       <g class="com.sun.star.drawing.ClosedBezierShape">
        <g id="id51">
         <rect class="BoundingBox" stroke="none" fill="none" x="3196" y="1275" width="37" height="36"/>
         <path fill="rgb(178,178,178)" stroke="none" d="M 3217,1310 C 3214,1310 3211,1310 3208,1309 3205,1308 3202,1306 3200,1304 3198,1302 3197,1299 3196,1296 3196,1293 3196,1290 3197,1287 3198,1284 3200,1281 3202,1279 3204,1277 3207,1276 3210,1275 3213,1275 3217,1275 3219,1276 3222,1277 3225,1279 3227,1281 3229,1283 3230,1286 3231,1289 3232,1292 3231,1295 3230,1298 3229,1301 3228,1304 3225,1306 3223,1308 3220,1309 3217,1310 Z "/>
        </g>
       </g>
       <g class="com.sun.star.drawing.ClosedBezierShape">
        <g id="id52">
         <rect class="BoundingBox" stroke="none" fill="none" x="3265" y="1262" width="37" height="37"/>
         <path fill="rgb(178,178,178)" stroke="none" d="M 3285,1298 C 3282,1298 3279,1298 3276,1297 3273,1296 3271,1294 3269,1292 3267,1289 3266,1286 3265,1283 3265,1280 3265,1277 3266,1274 3267,1272 3269,1269 3271,1267 3274,1265 3277,1264 3280,1263 3283,1263 3286,1263 3289,1264 3292,1265 3294,1267 3296,1269 3298,1272 3300,1275 3300,1278 3301,1281 3300,1284 3299,1287 3298,1290 3296,1292 3294,1294 3292,1296 3289,1297 3286,1298 L 3285,1298 Z "/>
        </g>
       </g>
       <g class="com.sun.star.drawing.ClosedBezierShape">
        <g id="id53">
         <rect class="BoundingBox" stroke="none" fill="none" x="3404" y="1244" width="37" height="36"/>
         <path fill="rgb(178,178,178)" stroke="none" d="M 3423,1279 C 3420,1279 3417,1279 3414,1278 3412,1276 3409,1274 3407,1272 3406,1269 3404,1266 3404,1263 3404,1260 3404,1257 3406,1254 3407,1252 3409,1249 3411,1247 3414,1246 3417,1244 3420,1244 3423,1244 3426,1244 3429,1246 3432,1247 3434,1249 3436,1251 3438,1254 3439,1257 3439,1260 3440,1263 3439,1266 3438,1269 3437,1271 3435,1274 3432,1276 3430,1277 3427,1279 3424,1279 L 3423,1279 Z "/>
        </g>
       </g>
       <g class="com.sun.star.drawing.ClosedBezierShape">
        <g id="id54">
         <rect class="BoundingBox" stroke="none" fill="none" x="3473" y="1238" width="38" height="36"/>
         <path fill="rgb(178,178,178)" stroke="none" d="M 3493,1273 C 3490,1273 3487,1273 3484,1271 3481,1270 3479,1268 3477,1265 3475,1263 3474,1260 3474,1257 3474,1254 3474,1251 3476,1248 3477,1245 3479,1243 3482,1241 3484,1239 3487,1238 3490,1238 L 3491,1238 C 3494,1238 3497,1238 3500,1240 3502,1241 3505,1243 3506,1246 3508,1248 3509,1251 3509,1254 3510,1257 3509,1260 3508,1263 3506,1266 3504,1268 3502,1270 3499,1272 3496,1273 3493,1273 Z "/>
        </g>
       </g>
       <g class="com.sun.star.drawing.ClosedBezierShape">
        <g id="id55">
         <rect class="BoundingBox" stroke="none" fill="none" x="3544" y="1234" width="36" height="36"/>
         <path fill="rgb(178,178,178)" stroke="none" d="M 3562,1269 C 3559,1269 3556,1268 3553,1267 3551,1266 3548,1263 3547,1261 3545,1258 3544,1255 3544,1252 3544,1249 3545,1246 3546,1243 3547,1241 3550,1238 3552,1237 3555,1235 3558,1234 3561,1234 3564,1234 3567,1235 3570,1236 3573,1237 3575,1240 3577,1242 3578,1245 3579,1248 3579,1251 3579,1254 3579,1257 3577,1260 3576,1262 3574,1265 3571,1266 3569,1268 3566,1269 3563,1269 3562,1269 3562,1269 3562,1269 Z "/>
        </g>
       </g>
       <g class="com.sun.star.drawing.ClosedBezierShape">
        <g id="id56">
         <rect class="BoundingBox" stroke="none" fill="none" x="3614" y="1233" width="36" height="37"/>
         <path fill="rgb(178,178,178)" stroke="none" d="M 3632,1268 C 3629,1268 3626,1267 3623,1266 3620,1264 3618,1262 3616,1259 3615,1257 3614,1254 3614,1251 3614,1248 3615,1245 3616,1242 3618,1239 3620,1237 3623,1235 3625,1234 3628,1233 3631,1233 L 3632,1233 C 3635,1233 3638,1234 3640,1235 3643,1237 3645,1239 3647,1242 3648,1244 3649,1247 3649,1250 3649,1253 3649,1256 3647,1259 3646,1262 3643,1264 3641,1266 3638,1267 3635,1268 3632,1268 Z "/>
        </g>
       </g>
       <g class="com.sun.star.drawing.ClosedBezierShape">
        <g id="id57">
         <rect class="BoundingBox" stroke="none" fill="none" x="3684" y="1233" width="36" height="37"/>
         <path fill="rgb(178,178,178)" stroke="none" d="M 3701,1268 C 3698,1268 3695,1267 3692,1265 3690,1264 3688,1262 3686,1259 3685,1256 3684,1253 3684,1250 3684,1247 3685,1244 3687,1241 3688,1239 3690,1237 3693,1235 3696,1234 3699,1233 3702,1233 3705,1233 3708,1234 3711,1236 3714,1237 3716,1239 3717,1242 3719,1245 3719,1248 3719,1251 3719,1254 3718,1257 3717,1260 3715,1262 3713,1264 3710,1266 3708,1267 3705,1268 3701,1268 Z "/>
        </g>
       </g>
       <g class="com.sun.star.drawing.ClosedBezierShape">
        <g id="id58">
         <rect class="BoundingBox" stroke="none" fill="none" x="3754" y="1236" width="36" height="36"/>
         <path fill="rgb(178,178,178)" stroke="none" d="M 3771,1271 C 3768,1271 3765,1270 3762,1268 3759,1266 3757,1264 3756,1261 3755,1259 3754,1256 3754,1253 3754,1250 3755,1247 3757,1244 3759,1241 3761,1239 3764,1238 3766,1237 3769,1236 3772,1236 3773,1236 3773,1236 3773,1236 3776,1236 3779,1237 3781,1239 3784,1241 3786,1243 3787,1246 3789,1248 3789,1251 3789,1254 3789,1258 3788,1260 3787,1263 3785,1266 3783,1268 3780,1269 3777,1271 3774,1271 3771,1271 Z "/>
        </g>
       </g>
       <g class="com.sun.star.drawing.ClosedBezierShape">
        <g id="id59">
         <rect class="BoundingBox" stroke="none" fill="none" x="3822" y="1240" width="38" height="37"/>
         <path fill="rgb(178,178,178)" stroke="none" d="M 3839,1275 C 3836,1275 3833,1274 3831,1272 3828,1270 3826,1268 3825,1265 3823,1262 3823,1259 3823,1256 3823,1253 3824,1250 3826,1248 3828,1245 3830,1243 3833,1242 3836,1240 3839,1240 3842,1240 3845,1240 3848,1241 3851,1243 3853,1245 3855,1247 3857,1250 3858,1253 3859,1256 3858,1259 3858,1262 3857,1265 3855,1268 3853,1270 3851,1272 3848,1273 3846,1275 3842,1275 3839,1275 Z "/>
        </g>
       </g>
       <g class="com.sun.star.drawing.ClosedBezierShape">
        <g id="id60">
         <rect class="BoundingBox" stroke="none" fill="none" x="3893" y="1246" width="37" height="37"/>
         <path fill="rgb(178,178,178)" stroke="none" d="M 3908,1282 C 3905,1282 3903,1280 3900,1279 3898,1277 3896,1274 3894,1271 3893,1269 3893,1266 3893,1262 3893,1259 3895,1257 3896,1254 3898,1252 3901,1250 3904,1248 3906,1247 3909,1247 3913,1247 3916,1248 3919,1249 3921,1250 3924,1252 3926,1255 3927,1258 3928,1260 3929,1264 3928,1267 3928,1270 3927,1273 3925,1275 3923,1277 3921,1279 3918,1281 3915,1282 3912,1282 3909,1282 L 3908,1282 Z "/>
        </g>
       </g>
       <g class="com.sun.star.drawing.ClosedBezierShape">
        <g id="id61">
         <rect class="BoundingBox" stroke="none" fill="none" x="3963" y="1256" width="37" height="37"/>
         <path fill="rgb(178,178,178)" stroke="none" d="M 3978,1292 C 3975,1291 3972,1290 3970,1288 3967,1286 3965,1284 3964,1281 3963,1278 3963,1275 3963,1272 3964,1269 3965,1266 3967,1264 3969,1261 3971,1259 3974,1258 3977,1257 3980,1257 3983,1257 3986,1258 3989,1259 3992,1261 3994,1263 3996,1265 3997,1268 3998,1271 3999,1274 3998,1277 3998,1280 3996,1283 3995,1285 3993,1288 3990,1290 3987,1291 3984,1292 3981,1292 3978,1292 Z "/>
        </g>
       </g>
       <g class="com.sun.star.drawing.ClosedBezierShape">
        <g id="id62">
         <rect class="BoundingBox" stroke="none" fill="none" x="4032" y="1268" width="37" height="36"/>
         <path fill="rgb(178,178,178)" stroke="none" d="M 4046,1303 C 4043,1302 4041,1301 4038,1299 4036,1297 4034,1294 4033,1291 4032,1289 4032,1285 4032,1282 4033,1279 4034,1277 4036,1274 4038,1272 4041,1270 4044,1269 4046,1268 4050,1268 4053,1268 4056,1269 4059,1270 4061,1272 4063,1274 4065,1277 4066,1280 4067,1283 4068,1286 4067,1289 4067,1292 4065,1295 4063,1297 4061,1299 4059,1301 4056,1302 4053,1303 4050,1303 4047,1303 L 4046,1303 Z "/>
        </g>
       </g>
       <g class="com.sun.star.drawing.ClosedBezierShape">
        <g id="id63">
         <rect class="BoundingBox" stroke="none" fill="none" x="4099" y="1281" width="38" height="37"/>
         <path fill="rgb(178,178,178)" stroke="none" d="M 4114,1316 C 4111,1315 4108,1314 4106,1312 4104,1309 4102,1307 4101,1304 4100,1301 4100,1298 4100,1295 4101,1292 4102,1289 4104,1287 4107,1285 4109,1283 4112,1282 4115,1281 4118,1281 4121,1281 4124,1282 4127,1284 4130,1286 4132,1288 4134,1290 4134,1293 4135,1296 4136,1299 4135,1302 4134,1305 4133,1308 4131,1310 4129,1313 4126,1314 4123,1315 4120,1316 4117,1316 4114,1316 Z "/>
        </g>
       </g>
       <g class="com.sun.star.drawing.ClosedBezierShape">
        <g id="id64">
         <rect class="BoundingBox" stroke="none" fill="none" x="4169" y="1297" width="37" height="36"/>
         <path fill="rgb(178,178,178)" stroke="none" d="M 4182,1331 C 4179,1331 4177,1329 4174,1327 4172,1325 4171,1322 4170,1319 4169,1316 4169,1313 4170,1310 4170,1307 4172,1305 4174,1302 4176,1300 4179,1299 4182,1298 4185,1297 4188,1297 4191,1298 4194,1298 4197,1300 4199,1302 4201,1304 4203,1307 4204,1310 4205,1313 4205,1316 4204,1319 4203,1322 4202,1324 4199,1327 4197,1329 4195,1331 4192,1331 4189,1332 4186,1332 4183,1332 4183,1332 4182,1332 4182,1331 Z "/>
        </g>
       </g>
       <g class="com.sun.star.drawing.ClosedBezierShape">
        <g id="id65">
         <rect class="BoundingBox" stroke="none" fill="none" x="4236" y="1315" width="37" height="36"/>
         <path fill="rgb(178,178,178)" stroke="none" d="M 4249,1349 C 4246,1349 4243,1347 4241,1345 4239,1343 4237,1340 4237,1337 4236,1334 4236,1331 4237,1328 4237,1325 4239,1322 4241,1320 4243,1318 4246,1316 4249,1316 4252,1315 4255,1315 4258,1316 L 4259,1316 C 4261,1317 4264,1318 4266,1320 4268,1323 4270,1325 4271,1328 4272,1331 4272,1334 4271,1337 4270,1340 4268,1343 4266,1345 4264,1347 4261,1349 4258,1350 4255,1350 4252,1350 4249,1349 Z "/>
        </g>
       </g>
       <g class="com.sun.star.drawing.ClosedBezierShape">
        <g id="id66">
         <rect class="BoundingBox" stroke="none" fill="none" x="4303" y="1334" width="37" height="36"/>
         <path fill="rgb(178,178,178)" stroke="none" d="M 4315,1368 C 4312,1367 4310,1366 4308,1363 4306,1361 4304,1358 4303,1355 4303,1352 4303,1349 4304,1346 4305,1343 4306,1341 4309,1339 4311,1337 4314,1335 4317,1334 4320,1334 4323,1334 4326,1335 4329,1336 4332,1337 4334,1340 4336,1342 4337,1345 4338,1348 4339,1351 4338,1354 4338,1357 4337,1360 4335,1362 4333,1364 4330,1367 4328,1368 4325,1369 4322,1369 4319,1369 4316,1368 L 4315,1368 Z "/>
        </g>
       </g>
       <g class="com.sun.star.drawing.ClosedBezierShape">
        <g id="id67">
         <rect class="BoundingBox" stroke="none" fill="none" x="4370" y="1356" width="37" height="36"/>
         <path fill="rgb(178,178,178)" stroke="none" d="M 4382,1390 C 4379,1389 4376,1387 4374,1385 4372,1383 4371,1380 4370,1377 4370,1374 4370,1371 4371,1368 4372,1365 4374,1362 4376,1360 4378,1358 4381,1357 4384,1356 4387,1356 4390,1356 4393,1357 L 4394,1357 C 4396,1358 4399,1360 4401,1362 4403,1364 4404,1367 4405,1370 4406,1373 4405,1376 4404,1379 4403,1382 4402,1385 4399,1387 4397,1389 4394,1390 4391,1391 4388,1391 4385,1391 4382,1390 Z "/>
        </g>
       </g>
       <g class="com.sun.star.drawing.ClosedBezierShape">
        <g id="id68">
         <rect class="BoundingBox" stroke="none" fill="none" x="4436" y="1380" width="37" height="37"/>
         <path fill="rgb(178,178,178)" stroke="none" d="M 4447,1414 C 4444,1413 4442,1411 4440,1409 4438,1406 4437,1403 4436,1400 4436,1397 4436,1394 4437,1391 4438,1388 4440,1386 4442,1384 4445,1382 4448,1381 4451,1380 4454,1380 4457,1380 4460,1381 4463,1382 4465,1384 4467,1387 4469,1389 4471,1392 4471,1395 4472,1398 4471,1401 4470,1404 4469,1407 4467,1409 4465,1411 4462,1413 4460,1414 4457,1415 4454,1415 4450,1415 4448,1414 4447,1414 4447,1414 4447,1414 Z "/>
        </g>
       </g>
       <g class="com.sun.star.drawing.ClosedBezierShape">
        <g id="id69">
         <rect class="BoundingBox" stroke="none" fill="none" x="5767" y="2767" width="36" height="38"/>
         <path fill="rgb(178,178,178)" stroke="none" d="M 5768,2791 C 5767,2788 5767,2785 5767,2782 5768,2779 5769,2777 5771,2774 5773,2772 5776,2770 5779,2769 5782,2768 5785,2768 5788,2768 5791,2769 5793,2770 5796,2772 5798,2774 5800,2777 5801,2780 5802,2783 5802,2786 5802,2789 5801,2792 5800,2795 5798,2797 5796,2800 5793,2801 5790,2802 5788,2803 5784,2804 5781,2803 5778,2802 5776,2801 5773,2799 5771,2797 5769,2795 5768,2792 L 5768,2791 Z "/>
        </g>
       </g>
       <g class="com.sun.star.drawing.ClosedBezierShape">
        <g id="id70">
         <rect class="BoundingBox" stroke="none" fill="none" x="5807" y="2902" width="36" height="37"/>
         <path fill="rgb(178,178,178)" stroke="none" d="M 5808,2924 C 5807,2921 5807,2918 5808,2915 5808,2912 5810,2910 5812,2907 5814,2905 5817,2904 5820,2903 5823,2902 5826,2902 5829,2903 5832,2903 5834,2905 5837,2907 5839,2909 5840,2912 5841,2915 5842,2918 5842,2921 5842,2924 5841,2927 5839,2930 5837,2932 5835,2934 5832,2936 5829,2937 5826,2938 5823,2938 5820,2937 5817,2936 5815,2935 5812,2932 5810,2930 5809,2928 5808,2925 L 5808,2924 Z "/>
        </g>
       </g>
       <g class="com.sun.star.drawing.ClosedBezierShape">
        <g id="id71">
         <rect class="BoundingBox" stroke="none" fill="none" x="5743" y="2702" width="36" height="37"/>
         <path fill="rgb(178,178,178)" stroke="none" d="M 5744,2725 C 5743,2722 5743,2719 5743,2716 5744,2713 5745,2711 5747,2708 5749,2706 5752,2704 5755,2703 5758,2702 5761,2702 5764,2702 5767,2703 5769,2704 5772,2706 5774,2708 5776,2711 5777,2714 5778,2717 5778,2720 5778,2723 5777,2726 5776,2729 5774,2731 5772,2734 5769,2735 5766,2736 5764,2737 5760,2738 5757,2737 5754,2736 5752,2735 5749,2733 5747,2731 5745,2729 5744,2726 L 5744,2725 Z "/>
        </g>
       </g>
       <g class="com.sun.star.drawing.ClosedBezierShape">
        <g id="id72">
         <rect class="BoundingBox" stroke="none" fill="none" x="5788" y="2835" width="36" height="37"/>
         <path fill="rgb(178,178,178)" stroke="none" d="M 5789,2857 C 5788,2854 5788,2851 5789,2848 5789,2845 5791,2843 5793,2840 5795,2838 5798,2837 5801,2836 5804,2835 5807,2835 5810,2836 5813,2836 5815,2838 5818,2840 5820,2842 5821,2845 5822,2848 5823,2851 5823,2854 5823,2857 5822,2860 5820,2863 5818,2865 5816,2867 5813,2869 5810,2870 5807,2871 5804,2871 5801,2870 5798,2869 5796,2868 5793,2865 5791,2863 5790,2861 5789,2858 L 5789,2857 Z "/>
        </g>
       </g>
       <g class="com.sun.star.drawing.ClosedBezierShape">
        <g id="id73">
         <rect class="BoundingBox" stroke="none" fill="none" x="5824" y="2969" width="36" height="38"/>
         <path fill="rgb(178,178,178)" stroke="none" d="M 5824,2991 C 5824,2988 5824,2985 5825,2982 5826,2979 5827,2977 5830,2975 5832,2972 5835,2971 5838,2970 5841,2970 5844,2970 5847,2971 5850,2972 5852,2973 5854,2976 5857,2978 5858,2981 5859,2984 5859,2987 5859,2990 5858,2993 5857,2996 5856,2999 5853,3001 5851,3003 5848,3004 5845,3005 5842,3006 5839,3005 5836,3004 5833,3004 5831,3002 5829,3000 5827,2997 5825,2995 5824,2992 L 5824,2991 Z "/>
        </g>
       </g>
      </g>
      <g class="com.sun.star.drawing.ClosedBezierShape">
       <g id="id74">
        <rect class="BoundingBox" stroke="none" fill="none" x="201" y="2056" width="385" height="1380"/>
        <g>
         <defs>
          <linearGradient id="gradient1" x1="633" y1="2085" x2="153" y2="3406" gradientUnits="userSpaceOnUse">
           <stop offset="0" style="stop-color:rgb(228,171,171)"/>
           <stop offset="1" style="stop-color:rgb(184,210,184)"/>
          </linearGradient>
         </defs>
         <path style="fill:url(#gradient1)" d="M 250,3425 L 210,3424 217,3264 230,3109 250,2959 276,2812 309,2668 348,2526 394,2385 446,2245 405,2228 402,2226 400,2223 399,2218 400,2214 401,2213 402,2211 551,2068 557,2065 564,2065 568,2069 569,2076 576,2282 575,2284 575,2286 573,2289 570,2292 565,2293 561,2292 521,2276 470,2413 426,2550 387,2689 355,2829 330,2972 310,3118 298,3270 291,3426 250,3425 Z "/>
        </g>
        <path fill="none" stroke="rgb(51,51,51)" stroke-width="18" stroke-linejoin="round" d="M 250,3425 L 210,3424 C 219,2989 299,2620 446,2245 L 405,2228 402,2226 400,2223 399,2218 400,2214 401,2213 402,2211 551,2068 557,2065 564,2065 568,2069 569,2076 576,2282 575,2284 575,2286 573,2289 570,2292 565,2293 561,2292 521,2276 C 377,2642 300,3001 291,3426 L 250,3425 Z "/>
       </g>
      </g>
      <g class="com.sun.star.drawing.ClosedBezierShape">
       <g id="id75">
        <rect class="BoundingBox" stroke="none" fill="none" x="6693" y="3551" width="385" height="1380"/>
        <g>
         <defs>
          <linearGradient id="gradient2" x1="7125" y1="3580" x2="6645" y2="4901" gradientUnits="userSpaceOnUse">
           <stop offset="0" style="stop-color:rgb(228,171,171)"/>
           <stop offset="1" style="stop-color:rgb(184,210,184)"/>
          </linearGradient>
         </defs>
         <path style="fill:url(#gradient2)" d="M 7027,3561 L 7068,3562 7061,3722 7048,3877 7028,4027 7001,4174 6969,4317 6929,4459 6884,4600 6832,4741 6872,4757 6876,4759 6878,4763 6878,4767 6878,4771 6877,4773 6875,4775 6726,4918 6721,4921 6714,4920 6710,4916 6708,4909 6702,4704 6702,4701 6703,4700 6705,4696 6708,4693 6713,4693 6716,4693 6757,4710 6808,4573 6852,4436 6890,4297 6922,4157 6948,4014 6967,3867 6980,3716 6987,3560 7027,3561 Z "/>
        </g>
        <path fill="none" stroke="rgb(51,51,51)" stroke-width="18" stroke-linejoin="round" d="M 7027,3561 L 7068,3562 C 7058,3997 6979,4365 6832,4741 L 6872,4757 6876,4759 6878,4763 6878,4767 6878,4771 6877,4773 6875,4775 6726,4918 6721,4921 6714,4920 6710,4916 6708,4909 6702,4704 6702,4701 6703,4700 6705,4696 6708,4693 6713,4693 6716,4693 6757,4710 C 6900,4344 6977,3984 6987,3560 L 7027,3561 Z "/>
       </g>
      </g>
      <g class="com.sun.star.drawing.ClosedBezierShape">
       <g id="id76">
        <rect class="BoundingBox" stroke="none" fill="none" x="1348" y="2268" width="445" height="1456"/>
        <defs>
         <mask id="mask1">
          <g>
           <defs>
            <linearGradient id="gradient3" x1="1570" y1="2295" x2="1570" y2="3696" gradientUnits="userSpaceOnUse">
             <stop offset="0" style="stop-color:rgb(77,77,77)"/>
             <stop offset="0.5" style="stop-color:rgb(255,255,255)"/>
             <stop offset="1" style="stop-color:rgb(77,77,77)"/>
            </linearGradient>
           </defs>
           <path style="fill:url(#gradient3)" d="M 1375,2295 L 1765,2295 1765,3696 1375,3696 1375,2295 Z "/>
          </g>
         </mask>
        </defs>
        <g style="mask:url(#mask1)">
         <path fill="rgb(228,171,171)" stroke="none" d="M 1383,3696 C 1382,3680 1381,3663 1380,3647 1379,3631 1378,3615 1377,3598 1377,3582 1376,3566 1376,3549 1375,3533 1375,3516 1375,3500 1375,3475 1376,3450 1376,3425 1377,3400 1379,3375 1380,3351 1382,3326 1384,3301 1386,3276 1389,3252 1392,3227 1395,3202 1398,3178 1402,3153 1406,3129 1410,3104 1414,3080 1419,3055 1424,3031 1429,3007 1435,2983 1441,2959 1447,2935 1453,2911 1459,2887 1466,2863 1473,2839 1481,2816 1488,2792 1496,2769 1504,2745 1512,2722 1521,2698 1530,2675 1539,2652 1548,2629 1558,2606 1568,2584 1578,2561 1588,2538 1599,2516 1610,2493 1621,2471 1632,2449 1644,2427 1656,2405 1668,2383 1680,2362 1693,2339 1707,2317 1720,2295 1735,2304 1750,2314 1765,2323 1752,2345 1739,2366 1726,2388 1714,2409 1702,2431 1690,2452 1679,2474 1668,2495 1657,2517 1647,2539 1636,2561 1626,2583 1616,2605 1607,2627 1597,2650 1588,2672 1579,2695 1570,2717 1562,2740 1554,2763 1546,2786 1539,2809 1531,2832 1524,2855 1517,2878 1510,2901 1504,2924 1498,2948 1492,2971 1486,2995 1481,3018 1476,3042 1471,3066 1466,3090 1462,3113 1458,3137 1454,3161 1451,3185 1447,3209 1444,3233 1442,3257 1439,3281 1437,3306 1435,3330 1433,3354 1432,3378 1430,3403 1429,3427 1429,3451 1428,3476 1428,3500 1428,3516 1428,3532 1429,3548 1429,3564 1430,3580 1430,3596 1431,3612 1432,3628 1433,3644 1434,3660 1435,3675 1436,3691 1419,3693 1401,3694 1383,3696 Z "/>
        </g>
        <path fill="none" stroke="rgb(228,171,171)" stroke-width="53" stroke-linejoin="round" d="M 1383,3696 C 1382,3680 1381,3663 1380,3647 1379,3631 1378,3615 1377,3598 1377,3582 1376,3566 1376,3549 1375,3533 1375,3516 1375,3500 1375,3475 1376,3450 1376,3425 1377,3400 1379,3375 1380,3351 L 1386,3276 C 1389,3252 1392,3227 1395,3202 1398,3178 1402,3153 1406,3129 1410,3104 1414,3080 1419,3055 1424,3031 1429,3007 1435,2983 L 1453,2911 C 1459,2887 1466,2863 1473,2839 1481,2816 1488,2792 1496,2769 1504,2745 1512,2722 1521,2698 L 1548,2629 C 1558,2606 1568,2584 1578,2561 1588,2538 1599,2516 1610,2493 1621,2471 1632,2449 1644,2427 1656,2405 1668,2383 1680,2362 1693,2339 1707,2317 1720,2295 1735,2304 1750,2314 1765,2323 1752,2345 1739,2366 1726,2388 1714,2409 1702,2431 1690,2452 1679,2474 1668,2495 1657,2517 1647,2539 1636,2561 1626,2583 1616,2605 1607,2627 1597,2650 1588,2672 1579,2695 1570,2717 L 1546,2786 C 1539,2809 1531,2832 1524,2855 1517,2878 1510,2901 1504,2924 1498,2948 1492,2971 1486,2995 1481,3018 1476,3042 1471,3066 1466,3090 1462,3113 1458,3137 1454,3161 1451,3185 1447,3209 1444,3233 1442,3257 1439,3281 1437,3306 1435,3330 1433,3354 1432,3378 1430,3403 1429,3427 1429,3451 1428,3476 1428,3500 1428,3516 1428,3532 1429,3548 1429,3564 1430,3580 1430,3596 L 1433,3644 C 1434,3660 1435,3675 1436,3691 1419,3693 1401,3694 1383,3696 Z "/>
       </g>
      </g>
      <g class="com.sun.star.drawing.ClosedBezierShape">
       <g id="id77">
        <rect class="BoundingBox" stroke="none" fill="none" x="6259" y="3551" width="516" height="1268"/>
        <g>
         <defs>
          <linearGradient id="gradient4" x1="6691" y1="3529" x2="6340" y2="4840" gradientUnits="userSpaceOnUse">
           <stop offset="0" style="stop-color:rgb(228,171,171)"/>
           <stop offset="1" style="stop-color:rgb(184,210,184)"/>
          </linearGradient>
         </defs>
         <path style="fill:url(#gradient4)" d="M 6774,3555 L 6765,3746 6744,3935 6712,4123 6668,4308 6630,4438 6586,4566 6537,4693 6483,4818 6259,4713 6309,4599 6355,4482 6395,4364 6430,4244 6470,4074 6500,3901 6519,3727 6527,3551 6774,3555 Z "/>
        </g>
       </g>
      </g>
      <g class="com.sun.star.drawing.ClosedBezierShape">
       <g id="id78">
        <rect class="BoundingBox" stroke="none" fill="none" x="527" y="3446" width="5956" height="3179"/>
        <path fill="rgb(184,210,184)" stroke="none" d="M 774,3450 C 774,3467 774,3483 774,3499 774,3752 807,4002 872,4244 937,4485 1033,4719 1159,4938 1286,5156 1440,5356 1617,5533 1794,5710 1994,5864 2213,5991 2431,6117 2665,6213 2906,6278 3148,6343 3398,6376 3651,6376 3904,6376 4154,6343 4396,6278 4637,6213 4871,6117 5090,5991 5308,5864 5508,5710 5685,5533 5862,5356 6016,5156 6143,4938 6184,4865 6223,4792 6258,4716 L 6482,4821 C 6443,4902 6402,4983 6356,5061 6219,5298 6052,5516 5860,5708 5668,5900 5450,6067 5213,6204 4976,6342 4722,6446 4460,6517 4197,6587 3925,6623 3651,6623 3377,6623 3105,6587 2842,6517 2580,6446 2326,6342 2089,6204 1852,6067 1634,5900 1442,5708 1250,5516 1083,5298 946,5061 808,4824 704,4570 633,4308 563,4045 527,3773 527,3499 527,3481 527,3464 527,3446 L 774,3450 Z "/>
       </g>
      </g>
      <g class="com.sun.star.drawing.ClosedBezierShape">
       <g id="id79">
        <rect class="BoundingBox" stroke="none" fill="none" x="5551" y="4913" width="833" height="935"/>
        <path fill="none" stroke="rgb(0,0,0)" stroke-width="53" stroke-linejoin="round" d="M 6356,5064 C 6220,5299 6054,5516 5860,5710 5822,5748 5783,5785 5743,5820 L 5578,5637 C 5615,5604 5650,5570 5685,5535 5864,5357 6017,5156 6142,4940 L 6356,5064 Z "/>
       </g>
      </g>
      <g class="com.sun.star.drawing.ClosedBezierShape">
       <g id="id80">
        <rect class="BoundingBox" stroke="none" fill="none" x="4494" y="1377" width="1295" height="1315"/>
        <path fill="rgb(228,171,171)" stroke="none" d="M 5712,2664 C 5673,2569 5628,2477 5577,2387 5479,2218 5360,2064 5223,1927 5087,1790 4932,1671 4763,1573 4684,1528 4604,1488 4521,1453 L 4542,1404 C 4626,1440 4709,1481 4789,1528 4962,1627 5121,1749 5261,1889 5401,2029 5523,2188 5623,2361 5675,2452 5722,2547 5761,2644 L 5712,2664 Z "/>
        <path fill="none" stroke="rgb(228,171,171)" stroke-width="53" stroke-linejoin="round" d="M 5712,2664 C 5673,2569 5628,2477 5577,2387 5479,2218 5360,2064 5223,1927 5087,1790 4932,1671 4763,1573 4684,1528 4604,1488 4521,1453 L 4542,1404 C 4626,1440 4709,1481 4789,1528 4962,1627 5121,1749 5261,1889 5401,2029 5523,2188 5623,2361 5675,2452 5722,2547 5761,2644 L 5712,2664 Z "/>
       </g>
      </g>
      <g class="com.sun.star.drawing.ClosedBezierShape">
       <g id="id81">
        <rect class="BoundingBox" stroke="none" fill="none" x="5470" y="3041" width="487" height="1760"/>
        <path fill="rgb(228,171,171)" stroke="none" d="M 5497,4743 C 5525,4701 5552,4657 5578,4613 5676,4444 5750,4264 5800,4077 5850,3890 5876,3696 5876,3501 5876,3359 5862,3217 5835,3078 L 5887,3068 C 5915,3210 5929,3355 5929,3501 5929,3701 5903,3899 5851,4090 5800,4282 5724,4467 5624,4640 5598,4685 5570,4729 5541,4773 L 5497,4743 Z "/>
        <path fill="none" stroke="rgb(228,171,171)" stroke-width="53" stroke-linejoin="round" d="M 5497,4743 C 5525,4701 5552,4657 5578,4613 5676,4444 5750,4264 5800,4077 5850,3890 5876,3696 5876,3501 5876,3359 5862,3217 5835,3078 L 5887,3068 C 5915,3210 5929,3355 5929,3501 5929,3701 5903,3899 5851,4090 5800,4282 5724,4467 5624,4640 5598,4685 5570,4729 5541,4773 L 5497,4743 Z "/>
       </g>
      </g>
      <g class="com.sun.star.drawing.ClosedBezierShape">
       <g id="id82">
        <rect class="BoundingBox" stroke="none" fill="none" x="821" y="376" width="5955" height="3177"/>
        <path fill="rgb(228,171,171)" stroke="none" d="M 6528,3548 C 6528,3532 6528,3516 6528,3500 6528,3247 6495,2997 6430,2755 6366,2514 6269,2280 6143,2061 6017,1843 5863,1643 5686,1466 5509,1289 5309,1135 5090,1008 4871,882 4638,786 4396,721 4154,656 3904,623 3651,623 3399,623 3149,656 2907,721 2665,786 2432,882 2213,1008 1994,1135 1794,1289 1617,1466 1440,1643 1286,1843 1160,2062 1118,2134 1080,2207 1045,2282 L 821,2178 C 859,2096 901,2016 946,1938 1083,1701 1250,1483 1442,1291 1635,1099 1852,932 2089,795 2327,657 2580,553 2843,482 3105,412 3377,376 3651,376 3926,376 4197,412 4460,482 4722,553 4976,657 5213,795 5451,932 5668,1099 5860,1291 6053,1483 6220,1701 6357,1938 6494,2175 6599,2429 6669,2691 6739,2954 6775,3226 6775,3500 6775,3517 6775,3535 6775,3552 L 6528,3548 Z "/>
       </g>
      </g>
      <g class="com.sun.star.drawing.ClosedBezierShape">
       <g id="id83">
        <rect class="BoundingBox" stroke="none" fill="none" x="934" y="1874" width="58" height="88"/>
        <path fill="rgb(51,51,51)" stroke="none" d="M 941,1949 C 941,1949 941,1949 941,1949 941,1949 941,1949 941,1949 941,1949 941,1949 941,1949 941,1949 941,1949 941,1949 941,1949 941,1949 941,1949 941,1949 941,1949 941,1949 941,1949 941,1949 941,1949 941,1949 940,1949 940,1949 940,1949 940,1949 940,1949 940,1949 940,1949 940,1949 940,1949 940,1949 940,1949 940,1949 940,1949 940,1949 940,1949 940,1949 940,1949 940,1949 940,1949 940,1949 940,1949 940,1949 940,1949 940,1949 940,1949 940,1948 940,1948 940,1948 940,1948 940,1948 940,1948 940,1948 940,1948 940,1948 940,1948 940,1948 940,1948 940,1948 940,1948 940,1948 940,1948 940,1948 940,1948 940,1948 940,1948 940,1948 940,1948 940,1948 940,1948 940,1948 940,1948 939,1948 939,1948 939,1948 939,1948 939,1948 939,1948 939,1948 939,1948 939,1948 939,1948 939,1948 939,1948 939,1948 939,1948 939,1948 939,1948 939,1948 939,1948 939,1948 939,1948 939,1948 939,1948 939,1948 939,1948 939,1948 939,1948 939,1948 939,1948 939,1948 939,1948 939,1948 939,1948 939,1948 939,1948 939,1948 939,1948 939,1948 939,1948 939,1948 939,1948 939,1948 939,1947 939,1947 939,1947 939,1947 939,1947 939,1947 939,1947 939,1947 939,1947 939,1947 939,1947 939,1947 939,1947 939,1947 938,1947 938,1947 938,1947 938,1947 938,1947 938,1947 938,1947 938,1947 938,1947 938,1947 938,1947 938,1947 938,1947 938,1947 938,1947 938,1947 938,1947 938,1947 938,1947 938,1947 938,1947 938,1947 938,1947 938,1947 938,1947 938,1947 938,1947 938,1947 938,1947 938,1947 938,1947 938,1947 938,1947 938,1947 938,1947 938,1947 938,1947 938,1947 938,1947 938,1947 938,1947 938,1947 938,1947 938,1947 938,1947 938,1947 938,1946 938,1946 938,1946 938,1946 938,1946 938,1946 938,1946 938,1946 938,1946 938,1946 938,1946 938,1946 938,1946 938,1946 937,1946 937,1946 937,1946 937,1946 937,1946 937,1946 937,1946 937,1946 937,1946 937,1946 937,1946 937,1946 937,1946 937,1946 937,1946 937,1946 937,1946 937,1946 937,1946 937,1946 937,1946 937,1946 937,1946 937,1946 937,1946 937,1946 937,1946 937,1946 937,1946 937,1946 937,1946 937,1946 937,1946 937,1946 937,1946 937,1946 937,1946 937,1946 937,1946 937,1946 937,1946 937,1945 937,1945 937,1945 937,1945 937,1945 937,1945 937,1945 937,1945 937,1945 937,1945 937,1945 937,1945 937,1945 937,1945 937,1945 937,1945 937,1945 937,1945 937,1945 937,1945 937,1945 937,1945 937,1945 937,1945 937,1945 937,1945 937,1945 936,1945 936,1945 936,1945 936,1945 936,1945 936,1945 936,1945 936,1945 936,1945 936,1945 936,1945 936,1945 936,1945 936,1945 936,1945 936,1945 936,1945 936,1945 936,1945 936,1945 936,1945 936,1945 936,1945 936,1945 936,1944 936,1944 936,1944 936,1944 936,1944 936,1944 936,1944 936,1944 936,1944 936,1944 936,1944 936,1944 936,1944 936,1944 936,1944 936,1944 936,1944 936,1944 936,1944 936,1944 936,1944 936,1944 936,1944 936,1944 936,1944 936,1944 936,1944 936,1944 936,1944 936,1944 936,1944 936,1944 936,1944 936,1944 936,1944 936,1944 936,1944 936,1944 936,1944 936,1944 936,1944 936,1944 936,1944 936,1944 936,1944 936,1944 936,1944 936,1944 936,1944 936,1944 936,1944 936,1944 936,1944 936,1944 936,1943 936,1943 936,1943 936,1943 936,1943 936,1943 936,1943 936,1943 936,1943 935,1943 935,1943 935,1943 935,1943 935,1943 935,1943 935,1943 935,1943 935,1943 935,1943 935,1943 935,1943 935,1943 935,1943 935,1943 935,1943 935,1943 935,1943 935,1943 935,1943 935,1943 935,1943 935,1943 935,1943 935,1943 935,1943 935,1943 935,1943 935,1943 935,1943 935,1943 935,1943 935,1943 935,1943 935,1943 935,1943 935,1943 935,1942 935,1942 935,1942 935,1942 935,1942 935,1942 935,1942 935,1942 935,1942 935,1942 935,1942 935,1942 935,1942 935,1942 935,1942 935,1942 935,1942 935,1942 935,1942 935,1942 935,1942 935,1942 935,1942 935,1942 935,1942 935,1942 935,1942 935,1942 935,1942 935,1942 935,1942 935,1942 935,1942 935,1942 935,1942 935,1942 935,1942 935,1942 935,1942 935,1942 935,1942 935,1942 935,1942 935,1942 935,1942 935,1941 935,1941 935,1941 935,1941 935,1941 935,1941 935,1941 935,1941 935,1941 935,1941 935,1941 935,1941 935,1941 935,1941 935,1941 935,1941 935,1941 935,1941 935,1941 935,1941 935,1941 935,1941 935,1941 935,1941 935,1941 935,1941 935,1941 935,1941 935,1941 935,1941 935,1941 935,1941 935,1941 935,1941 935,1941 934,1941 934,1941 934,1941 934,1941 934,1941 934,1941 934,1941 934,1941 934,1941 934,1940 934,1940 934,1940 934,1940 934,1940 934,1940 934,1940 934,1940 934,1940 934,1940 934,1940 934,1940 934,1940 934,1940 934,1940 934,1940 934,1940 934,1940 934,1940 934,1940 934,1940 934,1940 934,1940 934,1940 934,1940 934,1940 934,1940 934,1940 934,1940 934,1940 934,1940 934,1940 934,1940 934,1940 934,1940 934,1940 934,1940 934,1940 934,1940 934,1940 934,1940 934,1940 934,1939 934,1939 934,1939 934,1939 934,1939 934,1939 934,1939 934,1939 934,1939 934,1939 934,1939 934,1939 934,1939 934,1939 934,1939 934,1939 934,1939 934,1939 934,1939 934,1939 934,1939 934,1939 934,1939 934,1939 934,1939 934,1939 934,1939 934,1939 934,1939 934,1939 934,1939 934,1939 934,1939 934,1939 934,1939 934,1939 934,1939 934,1939 934,1939 934,1939 934,1939 934,1939 934,1939 934,1938 934,1938 934,1938 934,1938 934,1938 934,1938 934,1938 934,1938 934,1938 934,1938 934,1938 934,1938 934,1938 934,1938 934,1938 934,1938 934,1938 934,1938 934,1938 934,1938 934,1938 934,1938 934,1938 934,1938 934,1938 934,1938 934,1938 934,1938 934,1938 934,1938 934,1938 934,1938 934,1938 934,1938 934,1938 934,1938 934,1938 934,1938 934,1938 934,1938 934,1938 934,1937 934,1937 934,1937 934,1937 934,1937 934,1937 934,1937 934,1937 934,1937 934,1937 934,1937 934,1937 934,1937 934,1937 934,1937 934,1937 934,1937 934,1937 934,1937 934,1937 934,1937 934,1937 934,1937 934,1937 934,1937 934,1937 934,1937 934,1937 934,1937 934,1937 934,1937 934,1937 934,1937 934,1937 934,1937 934,1937 934,1937 934,1937 934,1937 934,1937 934,1937 934,1937 934,1937 934,1937 934,1937 934,1937 934,1937 934,1937 934,1936 934,1936 934,1936 934,1936 934,1936 934,1936 934,1936 934,1936 934,1936 934,1936 934,1936 934,1936 934,1936 934,1936 934,1936 934,1936 934,1936 934,1936 934,1936 934,1936 934,1936 934,1936 934,1936 934,1936 934,1936 934,1936 934,1936 934,1936 934,1936 934,1936 934,1936 934,1936 934,1936 934,1936 934,1936 934,1936 934,1936 934,1936 934,1936 934,1936 934,1936 934,1936 934,1935 934,1935 934,1935 934,1935 934,1935 934,1935 934,1935 934,1935 934,1935 934,1935 934,1935 934,1935 934,1935 934,1935 934,1935 934,1935 934,1935 934,1935 934,1935 934,1935 934,1935 934,1935 934,1935 934,1935 934,1935 934,1935 934,1935 934,1935 934,1935 934,1935 934,1935 934,1935 934,1935 934,1935 934,1935 934,1935 934,1935 934,1935 934,1935 934,1935 934,1935 934,1935 934,1934 934,1934 934,1934 934,1934 934,1934 934,1934 934,1934 934,1934 934,1934 934,1934 934,1934 934,1934 934,1934 934,1934 934,1934 934,1934 934,1934 934,1934 934,1934 934,1934 934,1934 934,1934 934,1934 934,1934 934,1934 934,1934 934,1934 934,1934 934,1934 934,1934 934,1934 934,1934 934,1934 934,1934 934,1934 934,1934 934,1934 934,1934 934,1934 934,1934 934,1934 934,1934 934,1934 934,1933 934,1933 934,1933 934,1933 934,1933 934,1933 934,1933 934,1933 934,1933 935,1933 935,1933 935,1933 935,1933 935,1933 935,1933 935,1933 935,1933 935,1933 935,1933 935,1933 935,1933 935,1933 935,1933 935,1933 935,1933 935,1933 935,1933 935,1933 935,1933 935,1933 935,1933 935,1933 935,1933 935,1933 935,1933 935,1933 935,1933 935,1933 935,1933 935,1933 935,1933 935,1933 935,1933 935,1933 935,1932 935,1932 935,1932 935,1932 935,1932 935,1932 935,1932 935,1932 935,1932 935,1932 935,1932 935,1932 935,1932 935,1932 935,1932 935,1932 935,1932 935,1932 935,1932 935,1932 935,1932 935,1932 935,1932 935,1932 935,1932 935,1932 935,1932 935,1932 935,1932 935,1932 935,1932 935,1932 935,1932 935,1932 935,1932 935,1932 935,1932 935,1932 935,1932 935,1932 935,1932 935,1932 935,1932 935,1932 935,1931 935,1931 935,1931 935,1931 935,1931 935,1931 935,1931 935,1931 935,1931 935,1931 935,1931 935,1931 935,1931 935,1931 935,1931 935,1931 935,1931 935,1931 935,1931 935,1931 935,1931 935,1931 935,1931 935,1931 935,1931 935,1931 935,1931 935,1931 935,1931 935,1931 935,1931 935,1931 935,1931 935,1931 935,1931 935,1931 935,1931 936,1931 936,1931 936,1931 936,1931 936,1931 936,1931 936,1931 936,1931 936,1931 936,1930 936,1930 936,1930 936,1930 936,1930 936,1930 936,1930 936,1930 936,1930 936,1930 936,1930 936,1930 936,1930 936,1930 936,1930 936,1930 936,1930 936,1930 936,1930 936,1930 936,1930 936,1930 936,1930 936,1930 936,1930 936,1930 936,1930 936,1930 936,1930 936,1930 936,1930 936,1930 945,1914 955,1897 965,1881 966,1879 968,1878 970,1876 972,1875 975,1875 977,1875 979,1875 982,1875 984,1877 986,1878 988,1880 989,1882 990,1884 991,1886 991,1889 991,1891 990,1894 989,1896 981,1908 974,1920 967,1932 L 972,1935 C 974,1936 976,1938 977,1940 978,1942 979,1944 979,1947 979,1949 978,1952 977,1954 976,1956 974,1958 972,1959 969,1960 967,1961 965,1961 962,1961 960,1960 958,1959 L 941,1949 C 941,1949 941,1949 941,1949 941,1949 941,1949 941,1949 Z "/>
       </g>
      </g>
      <g class="com.sun.star.drawing.ClosedBezierShape">
       <g id="id84">
        <rect class="BoundingBox" stroke="none" fill="none" x="991" y="1779" width="61" height="78"/>
        <path fill="rgb(51,51,51)" stroke="none" d="M 1018,1849 C 1017,1851 1015,1852 1013,1854 1010,1855 1008,1855 1005,1855 1003,1855 1001,1854 999,1853 996,1852 995,1850 994,1848 992,1846 992,1843 992,1841 992,1838 993,1836 994,1834 1004,1818 1014,1802 1025,1786 1026,1784 1028,1782 1030,1781 1032,1780 1035,1780 1037,1780 1040,1780 1042,1781 1044,1782 1046,1783 1048,1785 1049,1787 1050,1790 1050,1792 1050,1795 1050,1797 1049,1799 1048,1801 1038,1817 1028,1833 1018,1849 Z "/>
       </g>
      </g>
      <g class="com.sun.star.drawing.ClosedBezierShape">
       <g id="id85">
        <rect class="BoundingBox" stroke="none" fill="none" x="1053" y="1687" width="62" height="76"/>
        <path fill="rgb(51,51,51)" stroke="none" d="M 1079,1755 C 1077,1757 1076,1759 1073,1760 1071,1761 1069,1762 1066,1761 1064,1761 1061,1760 1059,1759 1057,1758 1056,1756 1055,1754 1054,1751 1053,1749 1053,1746 1054,1744 1054,1742 1056,1740 1066,1724 1077,1709 1088,1693 1089,1691 1091,1690 1093,1688 1096,1687 1098,1687 1101,1687 1103,1687 1105,1688 1107,1690 1109,1691 1111,1693 1112,1695 1113,1698 1113,1700 1113,1702 1113,1705 1112,1707 1111,1709 1100,1725 1089,1740 1079,1755 Z "/>
       </g>
      </g>
      <g class="com.sun.star.drawing.ClosedBezierShape">
       <g id="id86">
        <rect class="BoundingBox" stroke="none" fill="none" x="1117" y="1596" width="64" height="75"/>
        <path fill="rgb(51,51,51)" stroke="none" d="M 1143,1664 C 1142,1666 1140,1668 1138,1669 1135,1670 1133,1670 1130,1670 1128,1670 1126,1669 1124,1667 1122,1666 1120,1664 1119,1662 1118,1659 1118,1657 1118,1654 1118,1652 1119,1650 1121,1648 1132,1632 1143,1617 1154,1602 1156,1600 1158,1599 1160,1598 1162,1597 1165,1597 1167,1597 1170,1597 1172,1598 1174,1600 1176,1601 1178,1603 1178,1605 1179,1608 1180,1610 1179,1613 1179,1615 1178,1617 1177,1619 1165,1634 1154,1649 1143,1664 Z "/>
       </g>
      </g>
      <g class="com.sun.star.drawing.ClosedBezierShape">
       <g id="id87">
        <rect class="BoundingBox" stroke="none" fill="none" x="1185" y="1508" width="65" height="74"/>
        <path fill="rgb(51,51,51)" stroke="none" d="M 1211,1575 C 1209,1577 1207,1579 1205,1580 1203,1581 1200,1581 1198,1581 1195,1580 1193,1579 1191,1578 1189,1576 1188,1574 1187,1572 1186,1570 1185,1567 1186,1565 1186,1562 1187,1560 1189,1558 1200,1543 1212,1529 1224,1514 1226,1512 1228,1511 1230,1510 1232,1509 1235,1509 1237,1509 1240,1510 1242,1511 1244,1512 1246,1514 1247,1516 1248,1518 1249,1520 1249,1523 1249,1525 1248,1528 1247,1530 1246,1532 1234,1546 1222,1561 1211,1575 Z "/>
       </g>
      </g>
      <g class="com.sun.star.drawing.ClosedBezierShape">
       <g id="id88">
        <rect class="BoundingBox" stroke="none" fill="none" x="1256" y="1423" width="67" height="73"/>
        <path fill="rgb(51,51,51)" stroke="none" d="M 1281,1489 C 1280,1491 1278,1492 1275,1493 1273,1494 1271,1494 1268,1494 1266,1493 1263,1492 1262,1491 1260,1489 1258,1487 1257,1485 1257,1483 1256,1480 1257,1478 1257,1475 1258,1473 1260,1471 1272,1457 1284,1442 1297,1428 1299,1426 1301,1425 1303,1424 1305,1424 1308,1423 1310,1424 1313,1424 1315,1425 1317,1427 1318,1429 1320,1431 1321,1433 1321,1435 1322,1438 1321,1440 1321,1443 1320,1445 1318,1447 1306,1461 1293,1475 1281,1489 Z "/>
       </g>
      </g>
      <g class="com.sun.star.drawing.ClosedBezierShape">
       <g id="id89">
        <rect class="BoundingBox" stroke="none" fill="none" x="1330" y="1340" width="68" height="72"/>
        <path fill="rgb(51,51,51)" stroke="none" d="M 1355,1405 C 1353,1407 1351,1409 1349,1409 1346,1410 1344,1410 1342,1410 1339,1409 1337,1408 1335,1406 1333,1405 1332,1403 1331,1400 1330,1398 1330,1395 1331,1393 1331,1391 1333,1388 1334,1387 1347,1373 1360,1359 1373,1345 1374,1343 1377,1342 1379,1341 1381,1341 1384,1341 1386,1341 1389,1342 1391,1343 1393,1345 1394,1346 1396,1348 1396,1351 1397,1353 1397,1356 1396,1358 1396,1360 1395,1363 1393,1364 1380,1378 1367,1392 1355,1405 Z "/>
       </g>
      </g>
      <g class="com.sun.star.drawing.ClosedBezierShape">
       <g id="id90">
        <rect class="BoundingBox" stroke="none" fill="none" x="1407" y="1260" width="70" height="70"/>
        <path fill="rgb(51,51,51)" stroke="none" d="M 1432,1324 C 1430,1326 1428,1328 1425,1328 1423,1329 1420,1329 1418,1328 1416,1328 1413,1326 1412,1325 1410,1323 1409,1321 1408,1318 1407,1316 1407,1314 1408,1311 1409,1309 1410,1307 1412,1305 1419,1298 1426,1290 1433,1283 1439,1277 1445,1271 1451,1265 1453,1263 1455,1262 1457,1261 1460,1260 1462,1260 1465,1261 1467,1262 1469,1263 1471,1265 1473,1266 1474,1269 1475,1271 1475,1273 1475,1276 1475,1278 1474,1281 1473,1283 1471,1285 1465,1291 1459,1297 1453,1303 1453,1303 1453,1303 1453,1303 1446,1310 1439,1317 1432,1324 Z "/>
       </g>
      </g>
      <g class="com.sun.star.drawing.ClosedBezierShape">
       <g id="id91">
        <rect class="BoundingBox" stroke="none" fill="none" x="1486" y="1183" width="72" height="68"/>
        <path fill="rgb(51,51,51)" stroke="none" d="M 1511,1246 C 1509,1248 1507,1249 1504,1249 1502,1250 1499,1250 1497,1249 1495,1248 1493,1247 1491,1245 1489,1244 1488,1241 1487,1239 1487,1237 1487,1234 1488,1232 1488,1229 1490,1227 1491,1226 1505,1213 1519,1200 1533,1187 1535,1186 1537,1184 1539,1184 1542,1183 1544,1184 1547,1184 1549,1185 1551,1186 1553,1188 1554,1190 1556,1192 1556,1195 1557,1197 1556,1200 1556,1202 1555,1204 1554,1206 1552,1208 1538,1220 1524,1233 1511,1246 Z "/>
       </g>
      </g>
      <g class="com.sun.star.drawing.ClosedBezierShape">
       <g id="id92">
        <rect class="BoundingBox" stroke="none" fill="none" x="1567" y="1189" width="68" height="72"/>
        <path fill="rgb(51,51,51)" stroke="none" d="M 1571,1213 C 1569,1211 1568,1209 1568,1207 1567,1204 1567,1202 1568,1200 1569,1197 1570,1195 1572,1193 1574,1192 1576,1191 1579,1190 1581,1190 1584,1190 1586,1191 1588,1191 1590,1193 1592,1195 L 1630,1236 C 1631,1238 1632,1241 1633,1243 1633,1245 1633,1248 1632,1250 1632,1252 1630,1255 1628,1256 1627,1258 1624,1259 1622,1260 1620,1260 1617,1260 1615,1259 1612,1258 1610,1257 1609,1255 L 1571,1213 Z "/>
       </g>
      </g>
      <g class="com.sun.star.drawing.ClosedBezierShape">
       <g id="id93">
        <rect class="BoundingBox" stroke="none" fill="none" x="1642" y="1273" width="67" height="72"/>
        <path fill="rgb(51,51,51)" stroke="none" d="M 1646,1297 C 1644,1295 1643,1293 1643,1290 1642,1288 1642,1285 1643,1283 1644,1281 1645,1279 1647,1277 1649,1275 1651,1274 1653,1274 1656,1273 1658,1273 1661,1274 1663,1275 1665,1276 1667,1278 L 1704,1320 C 1706,1322 1707,1324 1708,1326 1708,1329 1708,1331 1707,1334 1706,1336 1705,1338 1703,1340 1701,1341 1699,1342 1697,1343 1694,1343 1692,1343 1690,1342 1687,1342 1685,1340 1683,1339 L 1646,1297 Z "/>
       </g>
      </g>
      <g class="com.sun.star.drawing.ClosedBezierShape">
       <g id="id94">
        <rect class="BoundingBox" stroke="none" fill="none" x="1174" y="1954" width="59" height="78"/>
        <path fill="rgb(51,51,51)" stroke="none" d="M 1206,1961 C 1207,1959 1209,1957 1211,1956 1213,1955 1216,1955 1218,1955 1221,1955 1223,1955 1225,1957 1227,1958 1229,1960 1230,1962 1231,1964 1232,1967 1232,1969 1232,1972 1231,1974 1230,1976 1220,1992 1210,2008 1200,2024 1199,2026 1197,2028 1195,2029 1193,2030 1190,2031 1188,2031 1186,2030 1183,2030 1181,2029 1179,2027 1177,2025 1176,2023 1175,2021 1174,2019 1174,2016 1174,2014 1175,2011 1176,2009 1186,1993 1196,1977 1206,1961 Z "/>
       </g>
      </g>
      <g class="com.sun.star.drawing.ClosedBezierShape">
       <g id="id95">
        <rect class="BoundingBox" stroke="none" fill="none" x="1664" y="1356" width="72" height="68"/>
        <path fill="rgb(51,51,51)" stroke="none" d="M 1711,1360 C 1713,1358 1715,1357 1717,1356 1720,1356 1722,1356 1725,1357 1727,1358 1729,1359 1731,1361 1732,1363 1734,1365 1734,1367 1735,1370 1734,1372 1734,1374 1733,1377 1732,1379 1730,1380 1716,1393 1702,1406 1688,1418 1687,1420 1684,1421 1682,1422 1680,1422 1677,1422 1675,1422 1672,1421 1670,1419 1669,1418 1667,1416 1666,1414 1665,1411 1665,1409 1665,1406 1665,1404 1666,1402 1667,1400 1669,1398 1683,1385 1697,1372 1711,1360 Z "/>
       </g>
      </g>
      <g class="com.sun.star.drawing.ClosedBezierShape">
       <g id="id96">
        <rect class="BoundingBox" stroke="none" fill="none" x="1584" y="1432" width="70" height="70"/>
        <path fill="rgb(51,51,51)" stroke="none" d="M 1629,1437 C 1631,1435 1633,1434 1635,1433 1637,1432 1640,1432 1642,1433 1645,1434 1647,1435 1649,1437 1650,1439 1652,1441 1652,1443 1653,1446 1653,1448 1652,1450 1651,1453 1650,1455 1648,1457 1642,1463 1635,1470 1628,1477 1621,1483 1615,1490 1609,1496 1607,1498 1605,1499 1603,1500 1600,1501 1598,1501 1595,1500 1593,1499 1591,1498 1589,1496 1587,1495 1586,1493 1585,1490 1585,1488 1585,1485 1585,1483 1586,1481 1587,1478 1589,1477 1595,1470 1602,1464 1608,1457 1615,1450 1622,1443 1629,1437 Z "/>
       </g>
      </g>
      <g class="com.sun.star.drawing.ClosedBezierShape">
       <g id="id97">
        <rect class="BoundingBox" stroke="none" fill="none" x="1507" y="1512" width="69" height="71"/>
        <path fill="rgb(51,51,51)" stroke="none" d="M 1550,1517 C 1552,1515 1554,1514 1556,1513 1558,1512 1561,1512 1563,1513 1566,1514 1568,1515 1570,1516 1572,1518 1573,1520 1574,1523 1574,1525 1574,1527 1574,1530 1573,1532 1572,1534 1570,1536 1557,1550 1545,1563 1532,1577 1531,1579 1529,1580 1526,1581 1524,1582 1521,1582 1519,1582 1517,1581 1514,1580 1513,1578 1511,1577 1509,1575 1509,1572 1508,1570 1508,1567 1508,1565 1509,1563 1510,1560 1512,1558 1524,1545 1537,1531 1550,1517 Z "/>
       </g>
      </g>
      <g class="com.sun.star.drawing.ClosedBezierShape">
       <g id="id98">
        <rect class="BoundingBox" stroke="none" fill="none" x="1434" y="1595" width="66" height="73"/>
        <path fill="rgb(51,51,51)" stroke="none" d="M 1474,1600 C 1476,1598 1478,1597 1480,1596 1483,1595 1485,1595 1488,1596 1490,1596 1492,1597 1494,1599 1496,1601 1497,1603 1498,1605 1499,1607 1499,1610 1499,1612 1498,1615 1497,1617 1495,1619 1483,1633 1471,1647 1459,1661 1457,1663 1455,1665 1453,1665 1451,1666 1448,1667 1446,1666 1443,1666 1441,1665 1439,1663 1437,1661 1436,1659 1435,1657 1434,1655 1434,1652 1435,1650 1435,1647 1436,1645 1438,1643 1450,1629 1462,1615 1474,1600 Z "/>
       </g>
      </g>
      <g class="com.sun.star.drawing.ClosedBezierShape">
       <g id="id99">
        <rect class="BoundingBox" stroke="none" fill="none" x="1364" y="1681" width="64" height="74"/>
        <path fill="rgb(51,51,51)" stroke="none" d="M 1402,1687 C 1404,1685 1406,1683 1408,1682 1410,1681 1413,1681 1415,1681 1418,1682 1420,1683 1422,1684 1424,1686 1425,1688 1426,1690 1427,1693 1427,1695 1427,1697 1426,1700 1425,1702 1424,1704 1412,1719 1401,1733 1389,1748 1388,1750 1386,1752 1383,1752 1381,1753 1379,1754 1376,1753 1374,1753 1371,1752 1369,1751 1368,1749 1366,1747 1365,1745 1364,1743 1364,1740 1364,1738 1364,1735 1365,1733 1367,1731 1378,1716 1390,1701 1402,1687 Z "/>
       </g>
      </g>
      <g class="com.sun.star.drawing.ClosedBezierShape">
       <g id="id100">
        <rect class="BoundingBox" stroke="none" fill="none" x="1297" y="1769" width="63" height="76"/>
        <path fill="rgb(51,51,51)" stroke="none" d="M 1333,1776 C 1335,1774 1337,1772 1339,1771 1341,1770 1344,1770 1346,1770 1348,1770 1351,1771 1353,1773 1355,1774 1356,1776 1357,1778 1358,1781 1359,1783 1358,1786 1358,1788 1357,1790 1356,1792 1344,1807 1333,1822 1323,1838 1321,1840 1319,1841 1317,1842 1315,1843 1312,1844 1310,1843 1307,1843 1305,1842 1303,1841 1301,1839 1299,1837 1298,1835 1297,1833 1297,1830 1297,1828 1298,1826 1298,1823 1300,1821 1311,1806 1322,1791 1333,1776 Z "/>
       </g>
      </g>
      <g class="com.sun.star.drawing.ClosedBezierShape">
       <g id="id101">
        <rect class="BoundingBox" stroke="none" fill="none" x="1233" y="1861" width="62" height="76"/>
        <path fill="rgb(51,51,51)" stroke="none" d="M 1268,1867 C 1269,1865 1271,1863 1273,1862 1275,1861 1278,1861 1280,1861 1283,1861 1285,1862 1287,1863 1289,1865 1291,1867 1292,1869 1293,1871 1293,1874 1293,1876 1293,1879 1292,1881 1291,1883 1280,1898 1270,1914 1260,1929 1258,1932 1256,1933 1254,1934 1252,1935 1250,1936 1247,1936 1245,1936 1242,1935 1240,1933 1238,1932 1237,1930 1235,1928 1234,1926 1234,1923 1234,1921 1234,1919 1235,1916 1236,1914 1247,1898 1257,1883 1268,1867 Z "/>
       </g>
      </g>
      <g class="com.sun.star.drawing.ClosedBezierShape">
       <g id="id102">
        <rect class="BoundingBox" stroke="none" fill="none" x="1095" y="2016" width="79" height="58"/>
        <path fill="rgb(51,51,51)" stroke="none" d="M 1165,2047 C 1168,2048 1169,2050 1171,2052 1172,2054 1172,2057 1172,2059 1172,2061 1172,2064 1171,2066 1169,2068 1168,2070 1165,2071 1163,2072 1161,2073 1158,2073 1156,2073 1154,2072 1151,2071 L 1103,2043 C 1101,2042 1099,2040 1098,2038 1096,2036 1096,2033 1096,2031 1096,2028 1096,2026 1098,2024 1099,2022 1101,2020 1103,2019 1105,2017 1107,2017 1110,2017 1112,2017 1115,2017 1117,2019 L 1165,2047 Z "/>
       </g>
      </g>
      <g class="com.sun.star.drawing.ClosedBezierShape">
       <g id="id103">
        <rect class="BoundingBox" stroke="none" fill="none" x="998" y="1960" width="79" height="58"/>
        <path fill="rgb(51,51,51)" stroke="none" d="M 1069,1991 C 1071,1992 1072,1994 1074,1996 1075,1998 1076,2000 1076,2003 1076,2005 1075,2008 1074,2010 1072,2012 1071,2014 1069,2015 1066,2016 1064,2017 1062,2017 1059,2017 1057,2016 1055,2015 L 1006,1987 C 1004,1985 1002,1984 1001,1982 999,1979 999,1977 999,1975 999,1972 1000,1970 1001,1968 1002,1965 1004,1964 1006,1962 1008,1961 1010,1961 1013,1961 1015,1961 1018,1961 1020,1962 L 1069,1991 Z "/>
       </g>
      </g>
      <g class="com.sun.star.drawing.ClosedBezierShape">
       <g id="id104">
        <rect class="BoundingBox" stroke="none" fill="none" x="528" y="2181" width="516" height="1267"/>
        <g>
         <defs>
          <linearGradient id="gradient5" x1="960" y1="2159" x2="610" y2="3469" gradientUnits="userSpaceOnUse">
           <stop offset="0" style="stop-color:rgb(228,171,171)"/>
           <stop offset="1" style="stop-color:rgb(184,210,184)"/>
          </linearGradient>
         </defs>
         <path style="fill:url(#gradient5)" d="M 528,3443 L 537,3252 558,3063 590,2876 611,2783 634,2691 672,2561 716,2432 765,2306 819,2181 1043,2285 993,2400 948,2517 908,2635 873,2755 833,2925 803,3097 783,3271 775,3447 528,3443 Z "/>
        </g>
       </g>
      </g>
     </g>
    </g>
   </g>
  </g>
 </g>
</svg>